<svg width="12" height="14" viewBox="0 0 12 14" fill="none" xmlns="http://www.w3.org/2000/svg">
<path d="M1.2 7C1.80249 7 2.30128 7.48564 2.38699 8.11855L2.4 8.3125V12.6797C2.4 13.4046 1.86274 13.9922 1.2 13.9922C0.597508 13.9922 0.0987205 13.5066 0.0130112 12.8737L0 12.6797V8.3125C0 7.58763 0.537258 7 1.2 7ZM6 3.5C6.60249 3.5 7.10128 3.98564 7.18699 4.61855L7.2 4.8125V12.6797C7.2 13.4046 6.66274 13.9922 6 13.9922C5.39751 13.9922 4.89872 13.5066 4.81301 12.8737L4.8 12.6797V4.8125C4.8 4.08763 5.33726 3.5 6 3.5ZM10.8 0C11.4025 0 11.9013 0.485642 11.987 1.11855L12 1.3125V12.6875C12 13.4124 11.4627 14 10.8 14C10.1975 14 9.69872 13.5144 9.61301 12.8815L9.6 12.6875V1.3125C9.6 0.587626 10.1373 0 10.8 0Z" fill="#5360ED"/>
</svg>
