<svg width="18" height="14" viewBox="0 0 18 14" fill="none" xmlns="http://www.w3.org/2000/svg">
<path d="M6.2 7C6.80249 7 7.30128 7.48564 7.38699 8.11855L7.4 8.3125V12.6797C7.4 13.4046 6.86274 13.9922 6.2 13.9922C5.59751 13.9922 5.09872 13.5066 5.01301 12.8737L5 12.6797V8.3125C5 7.58763 5.53726 7 6.2 7ZM11 3.5C11.6025 3.5 12.1013 3.98564 12.187 4.61855L12.2 4.8125V12.6797C12.2 13.4046 11.6627 13.9922 11 13.9922C10.3975 13.9922 9.89872 13.5066 9.81301 12.8737L9.8 12.6797V4.8125C9.8 4.08763 10.3373 3.5 11 3.5Z" fill="#5360ED"/>
</svg>
