<svg width="14" height="14" viewBox="0 0 14 14" fill="none" xmlns="http://www.w3.org/2000/svg">
<path id="Union" d="M8.02146 0.743333C8.97611 -0.211321 10.5239 -0.211318 11.4786 0.743335C12.4332 1.69799 12.4332 3.24579 11.4786 4.20044L11.2071 4.47191L11.2929 4.55771C12.0739 5.33876 12.0739 6.60509 11.2929 7.38614L9.85355 8.82548C9.65829 9.02074 9.34171 9.02074 9.14645 8.82548C8.95118 8.63021 8.95118 8.31363 9.14645 8.11837L10.5858 6.67903C10.9763 6.28851 10.9763 5.65534 10.5858 5.26482L10.5 5.17902L4.85356 10.8254C4.78948 10.8895 4.70919 10.935 4.62128 10.957L0.621278 11.957C0.444236 12.0012 0.257142 11.9455 0.133149 11.8116C0.00915604 11.6777 -0.0320399 11.4869 0.0256687 11.3138L1.27567 7.56377C1.30022 7.49014 1.34157 7.42322 1.39646 7.36833L8.02146 0.743333ZM10.7715 1.45044C10.2073 0.886312 9.29269 0.886311 8.72857 1.45044L2.18703 7.99198L1.26238 10.7659L4.24439 10.0204L10.7715 3.49333C11.3356 2.9292 11.3356 2.01457 10.7715 1.45044ZM3.96666 13.9718C2.73162 13.9718 1.75917 13.4053 1.11173 12.8651L2.39642 12.5439C2.84174 12.7935 3.36919 12.9718 3.96666 12.9718C4.37205 12.9718 4.79005 12.8078 5.23585 12.5149C5.6826 12.2214 6.11407 11.828 6.5497 11.4196L6.66313 11.313C7.04752 10.9517 7.4472 10.576 7.82928 10.3162C8.23733 10.0388 8.7781 9.78672 9.34617 10.0052C9.72153 10.1496 9.96525 10.4162 10.1371 10.742C10.2983 11.0474 10.4093 11.4301 10.5173 11.8463C10.5667 12.0364 10.6504 12.2202 10.7463 12.3445C10.793 12.4051 10.8333 12.4394 10.8614 12.4568C10.8861 12.4719 10.8971 12.4719 10.8999 12.4719C11.0218 12.4719 11.231 12.3895 11.5299 12.186C11.7153 12.0598 11.8736 11.9335 12.0321 11.8071C12.1304 11.7287 12.2288 11.6501 12.3338 11.5716C12.6127 11.3629 12.8544 11.2228 13.0314 11.1333C13.1198 11.0885 13.1922 11.0564 13.245 11.0345C13.2714 11.0236 13.2929 11.0153 13.3091 11.0093L13.3294 11.0019L13.3365 10.9994L13.3392 10.9985L13.3404 10.9981C13.3405 10.998 13.3414 10.9977 13.5 11.4719L13.3414 10.9977C13.6033 10.9102 13.8866 11.0515 13.9742 11.3133C14.0614 11.5741 13.9217 11.856 13.662 11.9449L13.6581 11.9464C13.6527 11.9484 13.6422 11.9524 13.627 11.9587C13.5966 11.9712 13.5475 11.9928 13.4828 12.0256C13.3534 12.0911 13.1617 12.201 12.9329 12.3722C12.8743 12.4161 12.7977 12.4769 12.7103 12.5462C12.529 12.6901 12.3012 12.8707 12.0925 13.0128C11.7816 13.2244 11.351 13.4719 10.9 13.4719C10.4644 13.4719 10.1488 13.2072 9.9545 12.9554C9.75619 12.6983 9.62325 12.3821 9.54937 12.0975C9.43968 11.675 9.35277 11.3983 9.2527 11.2086C9.16342 11.0394 9.08266 10.9753 8.98715 10.9386C8.90523 10.907 8.74183 10.905 8.39155 11.1432C8.07852 11.356 7.73735 11.6763 7.33353 12.0554L7.23363 12.1491C6.8026 12.5532 6.31323 13.0035 5.78497 13.3506C5.25577 13.6983 4.64461 13.9718 3.96666 13.9718Z" fill="#2F54EB"/>
</svg>
