<svg width="17" height="16" viewBox="0 0 17 16" fill="none" xmlns="http://www.w3.org/2000/svg">
<path d="M7.38572 1.28908L6.06667 0.3C5.80702 0.105267 5.49122 0 5.16667 0H2.5C1.11929 0 0 1.11929 0 2.5V3.5H5.07069C5.20774 3.5 5.33879 3.44374 5.43319 3.34437L7.38572 1.28908ZM8.56466 1.5L6.15819 4.03312C5.875 4.33122 5.48186 4.5 5.07069 4.5H0V11.5C0 12.8807 1.11929 14 2.5 14H7.59971C7.21628 13.2499 7 12.4002 7 11.5C7 8.46243 9.46243 6 12.5 6C13.8296 6 15.0491 6.47182 16 7.25716V4L15.9947 3.83562C15.91 2.53154 14.8255 1.5 13.5 1.5H8.56466ZM17 11.5C17 13.9853 14.9853 16 12.5 16C10.0147 16 8 13.9853 8 11.5C8 9.01472 10.0147 7 12.5 7C14.9853 7 17 9.01472 17 11.5ZM13 9.5C13 9.22386 12.7761 9 12.5 9C12.2239 9 12 9.22386 12 9.5V11H10.5C10.2239 11 10 11.2239 10 11.5C10 11.7761 10.2239 12 10.5 12H12V13.5C12 13.7761 12.2239 14 12.5 14C12.7761 14 13 13.7761 13 13.5V12H14.5C14.7761 12 15 11.7761 15 11.5C15 11.2239 14.7761 11 14.5 11H13V9.5Z" fill="#EEF0FF"/>
</svg>
