<svg width="38" height="42" viewBox="0 0 38 42" fill="none" xmlns="http://www.w3.org/2000/svg">
<path d="M16 0C10.4772 0 6 4.47715 6 10C6 15.5228 10.4772 20 16 20C21.5228 20 26 15.5228 26 10C26 4.47715 21.5228 0 16 0ZM8.5 10C8.5 5.85786 11.8579 2.5 16 2.5C20.1421 2.5 23.5 5.85786 23.5 10C23.5 14.1421 20.1421 17.5 16 17.5C11.8579 17.5 8.5 14.1421 8.5 10ZM4.24988 24C1.90326 24 2.0504e-05 25.9013 2.74181e-06 28.2489L0 29C0 32.7555 1.94167 35.5669 4.92017 37.3802C7.84908 39.1633 11.7861 40 16 40C16.5318 40 17.0592 39.9867 17.5807 39.9598C16.8744 39.2174 16.2549 38.3917 15.7385 37.4988C11.9154 37.4646 8.57616 36.6791 6.22018 35.2448C3.86023 33.8081 2.5 31.7444 2.5 29L2.5 28.2489C2.50001 27.283 3.28295 26.5 4.24988 26.5H14.7999C15.1255 25.6177 15.544 24.7804 16.0437 24H4.24988ZM38 31C38 37.0751 33.0751 42 27 42C20.9249 42 16 37.0751 16 31C16 24.9249 20.9249 20 27 20C33.0751 20 38 24.9249 38 31ZM28.1901 24.4013C27.8155 23.1996 26.1845 23.1996 25.8099 24.4013L24.6163 28.2307H20.7537C19.5415 28.2307 19.0375 29.8477 20.0182 30.5904L23.1431 32.9572L21.9495 36.7866C21.5749 37.9883 22.8944 38.9877 23.8751 38.245L27 35.8783L30.1249 38.245C31.1056 38.9877 32.4251 37.9883 32.0505 36.7866L30.8569 32.9572L33.9818 30.5904C34.9625 29.8477 34.4585 28.2307 33.2463 28.2307H29.3837L28.1901 24.4013Z" fill="#5360ED"/>
</svg>
