<svg width="20" height="22" viewBox="0 0 20 22" fill="none" xmlns="http://www.w3.org/2000/svg">
<path d="M8 16C8 14.711 8.37519 13.5097 9.02233 12.4992H2.25278C1.01076 12.4992 0.00390625 13.5061 0.00390625 14.7481V15.6681C0.00390625 16.2401 0.182312 16.798 0.514274 17.2639C2.05643 19.4282 4.5794 20.5004 8.00036 20.5004C8.60023 20.5004 9.17254 20.4674 9.71685 20.4014C8.65093 19.2436 8 17.6978 8 16ZM8.00036 0.503906C10.7618 0.503906 13.0004 2.74248 13.0004 5.50391C13.0004 8.26533 10.7618 10.5039 8.00036 10.5039C5.23894 10.5039 3.00036 8.26533 3.00036 5.50391C3.00036 2.74248 5.23894 0.503906 8.00036 0.503906ZM20 16C20 19.0376 17.5376 21.5 14.5 21.5C11.4624 21.5 9 19.0376 9 16C9 12.9624 11.4624 10.5 14.5 10.5C17.5376 10.5 20 12.9624 20 16ZM15.0554 12.9206C14.8806 12.3598 14.1194 12.3598 13.9446 12.9206L13.3876 14.7077H11.5851C11.0194 14.7077 10.7842 15.4623 11.2418 15.8089L12.7001 16.9134L12.1431 18.7004C11.9683 19.2612 12.584 19.7276 13.0417 19.381L14.5 18.2766L15.9583 19.381C16.416 19.7276 17.0317 19.2612 16.8569 18.7004L16.2999 16.9134L17.7582 15.8089C18.2158 15.4623 17.9806 14.7077 17.4149 14.7077H15.6124L15.0554 12.9206Z" fill="#5360ED"/>
</svg>
