<svg width="17" height="30" viewBox="0 0 17 30" fill="none" xmlns="http://www.w3.org/2000/svg">
<g id="Alert On" clip-path="url(#clip0_8234_69763)">
<path id="Shape" d="M0.296399 7.09808C0.0754857 6.93239 -0.237915 6.97716 -0.403601 7.19808C-0.569286 7.41899 -0.524515 7.73239 -0.303602 7.89808L1.6984 9.39958C1.91932 9.56527 2.23272 9.5205 2.3984 9.29958C2.56409 9.07867 2.51932 8.76527 2.2984 8.59958L0.296399 7.09808ZM-0.5 11.9996C-0.776142 11.9996 -1 12.2235 -1 12.4996C-1 12.7757 -0.776142 12.9996 -0.5 12.9996H1C1.27614 12.9996 1.5 12.7757 1.5 12.4996C1.5 12.2235 1.27614 11.9996 1 11.9996H-0.5ZM10.9497 21.0011C10.7174 22.1415 9.70894 22.9996 8.50001 22.9996C7.29108 22.9996 6.28257 22.1415 6.05033 21.0011H10.9497ZM8.49765 6.99957C11.6466 6.99957 14.2415 9.33445 14.4821 12.355L14.4955 12.5772L14.5 12.8017L14.499 16.4076L15.4528 18.9947L15.4784 19.0792L15.4939 19.166L15.4991 19.2541C15.4991 19.5692 15.3034 19.8446 14.9771 19.9614L14.8636 19.9942L14.7491 20.0041H2.25136C2.16286 20.0041 2.07506 19.9885 1.99203 19.9579C1.70513 19.8521 1.51636 19.586 1.50958 19.2418L1.51418 19.1243L1.54762 18.9948L2.49901 16.4106L2.50009 12.7924L2.50439 12.5678C2.62701 9.45072 5.27103 6.99957 8.49765 6.99957ZM17.4036 7.19808C17.2379 6.97716 16.9245 6.93239 16.7036 7.09808L14.7016 8.59958C14.4807 8.76527 14.4359 9.07867 14.6016 9.29958C14.7673 9.5205 15.0807 9.56527 15.3016 9.39958L17.3036 7.89808C17.5245 7.73239 17.5693 7.41899 17.4036 7.19808ZM18 12.4996C18 12.2235 17.7761 11.9996 17.5 11.9996H16C15.7239 11.9996 15.5 12.2235 15.5 12.4996C15.5 12.7757 15.7239 12.9996 16 12.9996H17.5C17.7761 12.9996 18 12.7757 18 12.4996Z" fill="#5360ED"/>
</g>
<defs>
<clipPath id="clip0_8234_69763">
<rect width="16" height="30" fill="white" transform="translate(0.5)"/>
</clipPath>
</defs>
</svg>
