<svg width="14" height="14" viewBox="0 0 14 14" fill="none" xmlns="http://www.w3.org/2000/svg">
<g id="Arrow Counterclockwise">
<rect width="14" height="14" fill="#FEFEFE"/>
<path id="Shape" d="M12 7C12 4.23858 9.76142 2 7 2C5.36492 2 3.913 2.7844 3 3.99946L5.5 4C5.77614 4 6 4.22386 6 4.5C6 4.77614 5.77614 5 5.5 5H2.5C2.22386 5 2 4.77614 2 4.5V3.84295C1.99994 3.83864 1.99994 3.83434 2 3.83003V1.5C2 1.22386 2.22386 1 2.5 1C2.77614 1 3 1.22386 3 1.5V2.52786C4.06118 1.57815 5.46306 1 7 1C10.3137 1 13 3.68629 13 7C13 10.3137 10.3137 13 7 13C3.68629 13 1 10.3137 1 7C1 6.72386 1.22386 6.5 1.5 6.5C1.77614 6.5 2 6.72386 2 7C2 9.76142 4.23858 12 7 12C9.76142 12 12 9.76142 12 7Z" fill="#525252"/>
</g>
</svg>
