<svg width="29" height="28" viewBox="0 0 29 28" fill="none" xmlns="http://www.w3.org/2000/svg">
<g id="Arrow Circle Up">
<g id="Shape">
<path d="M9.3017 13.7803C9.59459 14.0732 10.0695 14.0732 10.3624 13.7803L13.582 10.5607V19.25C13.582 19.6642 13.9178 20 14.332 20C14.7462 20 15.082 19.6642 15.082 19.25V10.5607L18.3017 13.7803C18.5946 14.0732 19.0695 14.0732 19.3624 13.7803C19.6553 13.4874 19.6553 13.0126 19.3624 12.7197L14.8624 8.21967C14.5695 7.92678 14.0946 7.92678 13.8017 8.21967L9.3017 12.7197C9.00881 13.0126 9.00881 13.4874 9.3017 13.7803ZM2.33203 14C2.33203 20.6274 7.70461 26 14.332 26C20.9594 26 26.332 20.6274 26.332 14C26.332 7.37258 20.9594 2 14.332 2C7.70461 2 2.33203 7.37258 2.33203 14ZM14.332 24.5C8.53304 24.5 3.83203 19.799 3.83203 14C3.83203 8.20101 8.53304 3.5 14.332 3.5C20.131 3.5 24.832 8.20101 24.832 14C24.832 19.799 20.131 24.5 14.332 24.5Z" fill="#52C41A"/>
</g>
</g>
</svg>
