<svg width="14" height="15" viewBox="0 0 14 15" fill="none" xmlns="http://www.w3.org/2000/svg">
<g id="Arrow Left">
<path id="Shape" d="M12.5 8C12.7761 8 13 7.77614 13 7.5C13 7.22386 12.7761 7 12.5 7L2.80298 7L6.83448 3.37165C7.03974 3.18692 7.05638 2.87078 6.87165 2.66552C6.68692 2.46027 6.37077 2.44363 6.16552 2.62836L1.16552 7.12835C1.06016 7.22317 1 7.35826 1 7.5C1 7.64174 1.06016 7.77683 1.16552 7.87165L6.16552 12.3716C6.37077 12.5564 6.68692 12.5397 6.87165 12.3345C7.05638 12.1292 7.03974 11.8131 6.83448 11.6283L2.80298 8L12.5 8Z" fill="#5360ED"/>
</g>
</svg>
