<svg width="15" height="14" viewBox="0 0 15 14" fill="none" xmlns="http://www.w3.org/2000/svg">
<g id="Arrow Right">
<path id="Shape" d="M2 6.50001C1.72386 6.50001 1.5 6.72386 1.5 7.00001C1.5 7.27615 1.72386 7.50001 2 7.50001L11.697 7.5L7.66552 11.1284C7.46026 11.3131 7.44362 11.6292 7.62835 11.8345C7.81308 12.0397 8.12923 12.0564 8.33448 11.8717L13.3345 7.37165C13.4398 7.27683 13.5 7.14175 13.5 7C13.5 6.85826 13.4398 6.72318 13.3345 6.62836L8.33448 2.12836C8.12923 1.94363 7.81308 1.96027 7.62835 2.16552C7.44362 2.37078 7.46026 2.68692 7.66552 2.87165L11.697 6.5L2 6.50001Z" fill="#525252"/>
</g>
</svg>
