<svg width="21" height="20" viewBox="0 0 21 20" fill="none" xmlns="http://www.w3.org/2000/svg">
<g id="Arrow Up">
<path id="Shape" d="M3.86917 8.73464C3.58455 9.03557 3.59777 9.51026 3.8987 9.79489C4.19964 10.0795 4.67433 10.0663 4.95895 9.76536L9.91406 4.52632V17.25C9.91406 17.6642 10.2498 18 10.6641 18C11.0783 18 11.4141 17.6642 11.4141 17.25V4.52405L16.3713 9.76536C16.6559 10.0663 17.1306 10.0795 17.4316 9.79489C17.7325 9.51026 17.7457 9.03557 17.4611 8.73464L11.3917 2.31742C11.2344 2.15112 11.0343 2.05112 10.8255 2.01741C10.7735 2.00601 10.7195 2 10.6641 2C10.6065 2 10.5504 2.00649 10.4965 2.01878C10.2907 2.05377 10.0938 2.15332 9.93862 2.31742L3.86917 8.73464Z" fill="#52C41A"/>
</g>
</svg>
