<svg width="40" height="32" viewBox="0 0 40 32" fill="none" xmlns="http://www.w3.org/2000/svg">
<g id="Arrow Sort Down Lines">
<path id="Shape" d="M16.7509 8L16.6491 8.00685C16.283 8.05651 16.0009 8.3703 16.0009 8.75L16 21.442L12.7801 18.2244L12.696 18.1518C12.4023 17.9341 11.9856 17.9585 11.7194 18.2248C11.4267 18.5179 11.4269 18.9927 11.7199 19.2855L16.2237 23.7855L16.3078 23.8581C16.6015 24.0758 17.0182 24.0514 17.2843 23.7851L21.7806 19.2851L21.8531 19.2009C22.0709 18.9072 22.0465 18.4905 21.7801 18.2244L21.696 18.1518C21.4023 17.9341 20.9856 17.9585 20.7194 18.2248L17.5 21.446L17.5009 8.75L17.494 8.64823C17.4444 8.28215 17.1306 8 16.7509 8ZM20.25 8.5C19.8358 8.5 19.5 8.83579 19.5 9.25C19.5 9.66421 19.8358 10 20.25 10H28.25C28.6642 10 29 9.66421 29 9.25C29 8.83579 28.6642 8.5 28.25 8.5H20.25ZM19.5 12.25C19.5 11.8358 19.8358 11.5 20.25 11.5H25.25C25.6642 11.5 26 11.8358 26 12.25C26 12.6642 25.6642 13 25.25 13H20.25C19.8358 13 19.5 12.6642 19.5 12.25ZM20.25 14.5C19.8358 14.5 19.5 14.8358 19.5 15.25C19.5 15.6642 19.8358 16 20.25 16H22.25C22.6642 16 23 15.6642 23 15.25C23 14.8358 22.6642 14.5 22.25 14.5H20.25Z" fill="#525252"/>
</g>
</svg>
