<svg width="29" height="28" viewBox="0 0 29 28" fill="none" xmlns="http://www.w3.org/2000/svg">
<g id="Arrow Circle Down">
<path id="Shape" d="M9.3017 14.2197C9.59459 13.9268 10.0695 13.9268 10.3624 14.2197L13.582 17.4393V8.75C13.582 8.33579 13.9178 8 14.332 8C14.7462 8 15.082 8.33579 15.082 8.75V17.4393L18.3017 14.2197C18.5946 13.9268 19.0695 13.9268 19.3624 14.2197C19.6553 14.5126 19.6553 14.9874 19.3624 15.2803L14.8624 19.7803C14.5695 20.0732 14.0946 20.0732 13.8017 19.7803L9.3017 15.2803C9.00881 14.9874 9.00881 14.5126 9.3017 14.2197ZM2.33203 14C2.33203 7.37258 7.70461 2 14.332 2C20.9594 2 26.332 7.37258 26.332 14C26.332 20.6274 20.9594 26 14.332 26C7.70461 26 2.33203 20.6274 2.33203 14ZM14.332 3.5C8.53304 3.5 3.83203 8.20101 3.83203 14C3.83203 19.799 8.53304 24.5 14.332 24.5C20.131 24.5 24.832 19.799 24.832 14C24.832 8.20101 20.131 3.5 14.332 3.5Z" fill="#FF4D4F"/>
</g>
</svg>
