<svg width="21" height="20" viewBox="0 0 21 20" fill="none" xmlns="http://www.w3.org/2000/svg">
<g id="Arrow Down">
<path id="Shape" d="M17.4611 11.2654C17.7457 10.9644 17.7325 10.4897 17.4316 10.2051C17.1306 9.92049 16.6559 9.93371 16.3713 10.2346L11.4162 15.4737V2.75C11.4162 2.33579 11.0804 2 10.6662 2C10.252 2 9.91621 2.33579 9.91621 2.75V15.476L4.95895 10.2346C4.67433 9.93371 4.19964 9.92049 3.89871 10.2051C3.59777 10.4897 3.58455 10.9644 3.86917 11.2654L9.93862 17.6826C10.0959 17.8489 10.296 17.9489 10.5048 17.9826C10.5568 17.994 10.6108 18 10.6662 18C10.7238 18 10.7799 17.9935 10.8337 17.9812C11.0395 17.9462 11.2364 17.8467 11.3917 17.6826L17.4611 11.2654Z" fill="#FF4D4F"/>
</g>
</svg>
