<svg width="16" height="15" viewBox="0 0 16 15" fill="none" xmlns="http://www.w3.org/2000/svg">
<path d="M6.73464 0.205112C7.03557 -0.0795129 7.51026 -0.0662918 7.79489 0.234642C8.07951 0.535577 8.06629 1.01027 7.76536 1.29489L2.52632 6.25H15.25C15.6642 6.25 16 6.58579 16 7C16 7.41421 15.6642 7.75 15.25 7.75H2.52405L7.76536 12.7073C8.06629 12.9919 8.07951 13.4666 7.79489 13.7675C7.51026 14.0684 7.03557 14.0817 6.73464 13.797L0.317415 7.72759C0.151117 7.57031 0.051116 7.3702 0.0174122 7.16141C0.00601006 7.10942 0 7.05541 0 7C0 6.94241 0.00649261 6.88633 0.0187836 6.83246C0.053772 6.62667 0.153315 6.42976 0.317415 6.27455L6.73464 0.205112Z" fill="#3E4ACB"/>
</svg>
