<svg width="12" height="8" viewBox="0 0 12 8" fill="none" xmlns="http://www.w3.org/2000/svg">
<path d="M0.984442 4.62471L0.983464 4.62815C0.912505 4.8948 0.638789 5.05404 0.372018 4.9833C-0.0590217 4.86907 0.0168651 4.37186 0.0168651 4.37186L0.0345297 4.31047C0.0345297 4.31047 0.0606335 4.22636 0.0816627 4.1653C0.123686 4.04329 0.187952 3.87274 0.279309 3.66977C0.461538 3.26493 0.754431 2.72477 1.19877 2.18295C2.09629 1.08851 3.60509 0 6.00017 0C8.39524 0 9.90404 1.08851 10.8016 2.18295C11.2459 2.72477 11.5388 3.26493 11.721 3.66977C11.8124 3.87274 11.8766 4.04329 11.9187 4.1653C11.9397 4.22636 11.9552 4.27541 11.9658 4.31047C11.9711 4.328 11.9752 4.34204 11.9781 4.35236L11.9816 4.365L11.9827 4.36916L11.9832 4.37069L11.9835 4.37186C12.0542 4.63878 11.8952 4.91253 11.6283 4.9833C11.3618 5.05397 11.0885 4.89556 11.0172 4.62937L11.0169 4.62815L11.0159 4.62471L11.0085 4.5997C11.0014 4.57616 10.9898 4.53927 10.9732 4.49095C10.9399 4.39422 10.8866 4.25227 10.8091 4.08023C10.6538 3.73508 10.4041 3.27523 10.0283 2.81706C9.28569 1.9115 8.0445 1 6.00017 1C3.95584 1 2.71464 1.9115 1.97201 2.81706C1.59627 3.27523 1.34655 3.73508 1.19119 4.08023C1.11375 4.25227 1.06047 4.39422 1.02715 4.49095C1.01051 4.53927 0.998902 4.57616 0.991789 4.5997L0.984442 4.62471ZM3.50024 5.5C3.50024 4.11929 4.61953 3 6.00024 3C7.38096 3 8.50024 4.11929 8.50024 5.5C8.50024 6.88071 7.38096 8 6.00024 8C4.61953 8 3.50024 6.88071 3.50024 5.5Z" fill="#525252"/>
</svg>
