<svg width="25" height="24" viewBox="0 0 25 24" fill="none" xmlns="http://www.w3.org/2000/svg">
<g id="Building Bank">
<path id="Shape" d="M13.168 6.24985C13.168 6.80213 12.7203 7.24985 12.168 7.24985C11.6157 7.24985 11.168 6.80213 11.168 6.24985C11.168 5.69756 11.6157 5.24985 12.168 5.24985C12.7203 5.24985 13.168 5.69756 13.168 6.24985ZM13.1995 2.32416C12.5849 1.87567 11.751 1.87567 11.1364 2.32416L3.71454 7.74011C2.73746 8.45312 3.24179 9.99985 4.45137 9.99985H4.66797L4.66797 15.7997C3.77755 16.2549 3.16797 17.1812 3.16797 18.2498V19.7498C3.16797 20.1641 3.50376 20.4998 3.91797 20.4998H20.418C20.8322 20.4998 21.168 20.1641 21.168 19.7498V18.2498C21.168 17.1812 20.5584 16.2549 19.668 15.7997V9.99985H19.8846C21.0941 9.99985 21.5985 8.45312 20.6214 7.74011L13.1995 2.32416ZM12.0206 3.53585C12.1084 3.47178 12.2275 3.47178 12.3153 3.53585L19.1179 8.49985H5.21808L12.0206 3.53585ZM18.168 9.99985V15.4998H16.168V9.99985H18.168ZM14.668 9.99985V15.4998H12.918V9.99985H14.668ZM11.418 9.99985V15.4998H9.66797L9.66797 9.99985H11.418ZM5.91797 16.9998H18.418C19.1083 16.9998 19.668 17.5595 19.668 18.2498V18.9998H4.66797V18.2498C4.66797 17.5595 5.22761 16.9998 5.91797 16.9998ZM6.16797 15.4998L6.16797 9.99985H8.16797L8.16797 15.4998H6.16797Z" fill="#525252"/>
</g>
</svg>
