<svg width="18" height="14" viewBox="0 0 18 14" fill="none" xmlns="http://www.w3.org/2000/svg">
<g id="Cellular Data">
<path id="Shape" d="M3.75 9.0001C4.12656 9.0001 4.4383 9.27761 4.49187 9.63927L4.5 9.7501V12.2501C4.5 12.6643 4.16421 13.0001 3.75 13.0001C3.37344 13.0001 3.0617 12.7226 3.00813 12.3609L3 12.2501V9.7501C3 9.33589 3.33579 9.0001 3.75 9.0001ZM6.75 7.0001C7.12656 7.0001 7.4383 7.27761 7.49187 7.63927L7.5 7.7501V12.2501C7.5 12.6643 7.16421 13.0001 6.75 13.0001C6.37344 13.0001 6.0617 12.7226 6.00813 12.3609L6 12.2501V7.7501C6 7.33588 6.33579 7.0001 6.75 7.0001ZM9.75 5.0001C10.1266 5.0001 10.4383 5.27761 10.4919 5.63927L10.5 5.7501V12.2501C10.5 12.6643 10.1642 13.0001 9.75 13.0001C9.37344 13.0001 9.0617 12.7226 9.00813 12.3609L9 12.2501V5.7501C9 5.33588 9.33579 5.0001 9.75 5.0001ZM12.75 3.0001C13.1266 3.0001 13.4383 3.27761 13.4919 3.63927L13.5 3.7501V12.2488C13.5 12.663 13.1642 12.9988 12.75 12.9988C12.3734 12.9988 12.0617 12.7213 12.0081 12.3596L12 12.2488V3.7501C12 3.33588 12.3358 3.0001 12.75 3.0001ZM15.75 1.00003C16.1229 0.996609 16.4344 1.26825 16.4909 1.62563L16.5 1.73523L16.4856 12.2506C16.4896 12.6605 16.1602 12.996 15.75 13.0001C15.3771 13.0036 15.0656 12.7319 15.0091 12.3746L15 12.265L15.0144 1.74963C15.0104 1.33973 15.3398 1.00421 15.75 1.00003Z" fill="#5360ED"/>
</g>
</svg>
