<svg width="23" height="22" viewBox="0 0 23 22" fill="none" xmlns="http://www.w3.org/2000/svg">
<g id="Chat Multiple">
<path id="Shape" d="M9.06158 2C4.91944 2 1.56158 5.35786 1.56158 9.5C1.56158 10.6329 1.81325 11.7088 2.26423 12.6734C2.0102 13.6714 1.72638 14.7842 1.53999 15.5147C1.30697 16.428 2.1294 17.2588 3.04374 17.039C3.79396 16.8587 4.94699 16.5819 5.97447 16.337C6.91678 16.7631 7.96241 17 9.06158 17C13.2037 17 16.5616 13.6421 16.5616 9.5C16.5616 5.35786 13.2037 2 9.06158 2ZM3.06158 9.5C3.06158 6.18629 5.74787 3.5 9.06158 3.5C12.3753 3.5 15.0616 6.18629 15.0616 9.5C15.0616 12.8137 12.3753 15.5 9.06158 15.5C8.10084 15.5 7.19487 15.2748 6.39161 14.8749L6.1482 14.7537L5.88368 14.8167C4.96095 15.0363 3.89489 15.2919 3.09592 15.4838C3.29467 14.7047 3.55784 13.6724 3.78601 12.7757L3.85619 12.4998L3.72568 12.2468C3.30145 11.4246 3.06158 10.4914 3.06158 9.5ZM14.0616 20.0001C12.0922 20.0001 10.3001 19.241 8.96191 17.9995C8.99511 17.9999 9.02835 18.0001 9.06163 18.0001C9.7796 18.0001 10.4768 17.911 11.1427 17.7434C12.0067 18.2254 13.0021 18.5001 14.0616 18.5001C15.0223 18.5001 15.9283 18.2748 16.7316 17.8749L16.975 17.7537L17.2395 17.8167C18.1611 18.0361 19.2046 18.2625 19.9787 18.4262C19.8037 17.6757 19.565 16.6711 19.3372 15.7757L19.267 15.4999L19.3975 15.2469C19.8217 14.4247 20.0616 13.4915 20.0616 12.5001C20.0616 10.3853 18.9676 8.52617 17.3146 7.45761C17.1363 6.73435 16.8653 6.04756 16.515 5.41052C19.4523 6.42684 21.5616 9.21712 21.5616 12.5001C21.5616 13.6332 21.3098 14.7094 20.8586 15.6741C21.1117 16.6821 21.3679 17.774 21.5304 18.4773C21.7348 19.3623 20.9554 20.1633 20.063 19.9768C19.3358 19.8248 18.1933 19.581 17.1495 19.3367C16.207 19.763 15.1611 20.0001 14.0616 20.0001Z" fill="#5360ED"/>
</g>
</svg>
