<svg width="12" height="12" viewBox="0 0 12 12" fill="none" xmlns="http://www.w3.org/2000/svg">
<path d="M3.86035 10.8918C4.71857 11.585 5.81076 12.0001 6.99991 12.0001C7.75435 12.0001 8.47092 11.8327 9.11343 11.5326L11.4018 11.9904C11.5658 12.0232 11.7352 11.9719 11.8535 11.8537C11.9717 11.7355 12.023 11.566 11.9902 11.4021L11.5325 9.11349C11.8325 8.47102 11.9999 7.7545 11.9999 7.00012C11.9999 5.81121 11.585 4.71923 10.892 3.86108C10.9628 4.22987 11 4.61066 11 5.00012C11 5.37677 10.9652 5.74532 10.8989 6.10274C10.965 6.39122 10.9999 6.69159 10.9999 7.00012C10.9999 7.65583 10.8425 8.27332 10.5639 8.81826C10.5126 8.91863 10.4967 9.0334 10.5188 9.14394L10.8625 10.8627L9.1439 10.5189C9.03335 10.4968 8.91857 10.5127 8.81818 10.564C8.27321 10.8427 7.65567 11.0001 6.99991 11.0001C6.69135 11.0001 6.39095 10.9652 6.10245 10.899C5.74507 10.9654 5.37656 11.0001 4.99995 11.0001C4.61075 11.0001 4.22969 10.9629 3.86035 10.8918ZM5.00001 0C2.23858 0 8.1188e-06 2.23858 8.1188e-06 5C8.1188e-06 5.75438 0.167401 6.4709 0.467416 7.11337L0.00971694 9.40197C-0.0230683 9.5659 0.0282469 9.73537 0.146464 9.85358C0.264681 9.97179 0.434155 10.0231 0.598087 9.99031L2.88649 9.53253C3.529 9.83258 4.24557 10 5.00001 10C7.76143 10 10 7.76142 10 5C10 2.23858 7.76143 0 5.00001 0Z" fill="#525252"/>
</svg>
