<svg width="14" height="14" viewBox="0 0 14 14" fill="none" xmlns="http://www.w3.org/2000/svg">
<g id="Chevron Double">
<path id="Shape" d="M6.64645 2.85355C6.45118 2.65829 6.45118 2.34171 6.64645 2.14645C6.84171 1.95118 7.15829 1.95118 7.35355 2.14645L11.8536 6.64645C12.0488 6.84171 12.0488 7.15829 11.8536 7.35355L7.35355 11.8536C7.15829 12.0488 6.84171 12.0488 6.64645 11.8536C6.45118 11.6583 6.45118 11.3417 6.64645 11.1464L10.7929 7L6.64645 2.85355ZM2.64645 2.85355C2.45118 2.65829 2.45118 2.34171 2.64645 2.14645C2.84171 1.95118 3.15829 1.95118 3.35355 2.14645L7.85355 6.64645C8.04882 6.84171 8.04882 7.15829 7.85355 7.35355L3.35355 11.8536C3.15829 12.0488 2.84171 12.0488 2.64645 11.8536C2.45118 11.6583 2.45118 11.3417 2.64645 11.1464L6.79289 7L2.64645 2.85355Z" fill="#525252"/>
</g>
</svg>
