<svg width="16" height="16" viewBox="0 0 16 16" fill="none" xmlns="http://www.w3.org/2000/svg">
<path d="M6.00297 2.07044C6.54972 1.99247 7 2.44769 7 2.99997V8.99997H13C13.5523 8.99997 14.0075 9.45025 13.9295 9.997C13.4456 13.3907 10.5275 16 7 16C3.13401 16 0 12.866 0 8.99997C0 5.47247 2.60923 2.55439 6.00297 2.07044ZM15.062 8C15.5596 8 15.9892 7.6337 15.9987 7.13621C15.9996 7.09091 16 7.04551 16 7C16 3.13401 12.866 0 9 0C8.95449 0 8.90909 0.000434216 8.86379 0.00129873C8.3663 0.0107932 8 0.440446 8 0.938029V7C8 7.55228 8.44772 8 9 8H15.062Z" fill="#525252"/>
</svg>
