<svg width="12" height="13" viewBox="0 0 12 13" fill="none" xmlns="http://www.w3.org/2000/svg">
<path d="M6 0.600006C9.31371 0.600006 12 3.2863 12 6.60001C12 9.91371 9.31371 12.6 6 12.6C2.68629 12.6 0 9.91371 0 6.60001C0 3.2863 2.68629 0.600006 6 0.600006ZM4.53431 4.4386C4.33944 4.3036 4.07001 4.32289 3.89645 4.49645L3.83859 4.5657C3.7036 4.76057 3.72288 5.02999 3.89645 5.20356L5.293 6.60001L3.89645 7.99645L3.83859 8.0657C3.7036 8.26057 3.72288 8.52999 3.89645 8.70356L3.96569 8.76141C4.16056 8.89641 4.42999 8.87713 4.60355 8.70356L6 7.30701L7.39645 8.70356L7.46569 8.76141C7.66056 8.89641 7.92999 8.87713 8.10355 8.70356L8.16141 8.63431C8.2964 8.43944 8.27712 8.17002 8.10355 7.99645L6.707 6.60001L8.10355 5.20356L8.16141 5.13431C8.2964 4.93944 8.27712 4.67002 8.10355 4.49645L8.03431 4.4386C7.83944 4.3036 7.57001 4.32289 7.39645 4.49645L6 5.89301L4.60355 4.49645L4.53431 4.4386Z" fill="#8F8F8F"/>
</svg>
