<svg width="13" height="13" viewBox="0 0 13 13" fill="none" xmlns="http://www.w3.org/2000/svg">
<path d="M2.79844 0.278809C1.47295 0.278809 0.398438 1.35333 0.398438 2.67881V9.07881C0.398438 10.4043 1.47295 11.4788 2.79844 11.4788H5.67821C5.54865 11.2254 5.44295 10.9577 5.36406 10.6788H2.79844C1.91478 10.6788 1.19844 9.96246 1.19844 9.07881V2.67881C1.19844 1.79515 1.91478 1.07881 2.79844 1.07881H9.19844C10.0821 1.07881 10.7984 1.79515 10.7984 2.67881V5.24443C11.0773 5.32332 11.345 5.42902 11.5984 5.55858V2.67881C11.5984 1.35333 10.5239 0.278809 9.19844 0.278809H2.79844ZM5.59844 5.87881H7.06797C7.78371 5.37479 8.65651 5.07881 9.59844 5.07881H5.59844C5.37752 5.07881 5.19844 5.25789 5.19844 5.47881C5.19844 5.69972 5.37752 5.87881 5.59844 5.87881ZM2.39844 1.87881C2.17752 1.87881 1.99844 2.05789 1.99844 2.27881C1.99844 2.49972 2.17752 2.67881 2.39844 2.67881H9.59844C9.81935 2.67881 9.99844 2.49972 9.99844 2.27881C9.99844 2.05789 9.81935 1.87881 9.59844 1.87881H2.39844ZM3.19844 6.67881C3.86118 6.67881 4.39844 6.14155 4.39844 5.47881C4.39844 4.81607 3.86118 4.27881 3.19844 4.27881C2.5357 4.27881 1.99844 4.81607 1.99844 5.47881C1.99844 6.14155 2.5357 6.67881 3.19844 6.67881ZM3.19844 5.87881C2.97752 5.87881 2.79844 5.69972 2.79844 5.47881C2.79844 5.25789 2.97752 5.07881 3.19844 5.07881C3.41935 5.07881 3.59844 5.25789 3.59844 5.47881C3.59844 5.69972 3.41935 5.87881 3.19844 5.87881ZM3.19844 9.87881C3.86118 9.87881 4.39844 9.34155 4.39844 8.67881C4.39844 8.01607 3.86118 7.47881 3.19844 7.47881C2.5357 7.47881 1.99844 8.01607 1.99844 8.67881C1.99844 9.34155 2.5357 9.87881 3.19844 9.87881ZM3.19844 8.27881C3.41935 8.27881 3.59844 8.4579 3.59844 8.67881C3.59844 8.89972 3.41935 9.07881 3.19844 9.07881C2.97752 9.07881 2.79844 8.89972 2.79844 8.67881C2.79844 8.4579 2.97752 8.27881 3.19844 8.27881ZM13.1984 9.47881C13.1984 11.467 11.5867 13.0788 9.59844 13.0788C7.61021 13.0788 5.99844 11.467 5.99844 9.47881C5.99844 7.49058 7.61021 5.87881 9.59844 5.87881C11.5867 5.87881 13.1984 7.49058 13.1984 9.47881ZM9.99844 7.87881C9.99844 7.6579 9.81935 7.47881 9.59844 7.47881C9.37752 7.47881 9.19844 7.6579 9.19844 7.87881V9.07881H7.99844C7.77752 9.07881 7.59844 9.2579 7.59844 9.47881C7.59844 9.69972 7.77752 9.87881 7.99844 9.87881H9.19844V11.0788C9.19844 11.2997 9.37752 11.4788 9.59844 11.4788C9.81935 11.4788 9.99844 11.2997 9.99844 11.0788V9.87881H11.1984C11.4194 9.87881 11.5984 9.69972 11.5984 9.47881C11.5984 9.2579 11.4194 9.07881 11.1984 9.07881H9.99844V7.87881Z" fill="#525252"/>
</svg>
