<svg width="7" height="12" viewBox="0 0 7 12" fill="none" xmlns="http://www.w3.org/2000/svg">
<path d="M0.853553 3.85355C0.658291 4.04882 0.341709 4.04882 0.146447 3.85355C-0.0488155 3.65829 -0.0488155 3.34171 0.146447 3.14645L3.14645 0.146447C3.34171 -0.0488155 3.65829 -0.0488155 3.85355 0.146447L6.85355 3.14645C7.04882 3.34171 7.04882 3.65829 6.85355 3.85355C6.65829 4.04882 6.34171 4.04882 6.14645 3.85355L4 1.70711V10.2929L6.14645 8.14645C6.34171 7.95118 6.65829 7.95118 6.85355 8.14645C7.04882 8.34171 7.04882 8.65829 6.85355 8.85355L3.85355 11.8536C3.65829 12.0488 3.34171 12.0488 3.14645 11.8536L0.146447 8.85355C-0.0488155 8.65829 -0.0488155 8.34171 0.146447 8.14645C0.341709 7.95118 0.658291 7.95118 0.853553 8.14645L3 10.2929V1.70711L0.853553 3.85355Z" fill="#525252"/>
</svg>
