<svg width="17" height="16" viewBox="0 0 17 16" fill="none" xmlns="http://www.w3.org/2000/svg">
<path d="M7.10433 0.898987C7.47114 0.155739 8.53099 0.155744 8.8978 0.898988L10.8282 4.81048L15.1448 5.43772C15.9651 5.55691 16.2926 6.56488 15.699 7.14342L12.5755 10.1881L13.3129 14.4872C13.453 15.3042 12.5956 15.9271 11.8619 15.5414L8.00106 13.5116L4.14018 15.5414C3.40655 15.9271 2.54913 15.3041 2.68924 14.4872L3.4266 10.1881L0.303081 7.14341C-0.290438 6.56488 0.0370772 5.55691 0.857295 5.43772L5.17389 4.81048L7.10433 0.898987ZM8.00106 1.34155L6.07062 5.25305C5.92496 5.54819 5.6434 5.75276 5.31769 5.80009L1.00109 6.42733L4.12461 9.472C4.3603 9.70174 4.46784 10.0327 4.41221 10.3571L3.67484 14.6563L7.53572 12.6265C7.82705 12.4733 8.17508 12.4733 8.4664 12.6265L12.3273 14.6563L11.5899 10.3571C11.5343 10.0327 11.6418 9.70174 11.8775 9.47201L15.001 6.42733L10.6844 5.80009C10.3587 5.75276 10.0772 5.54819 9.9315 5.25305L8.00106 1.34155Z" fill="#242424"/>
</svg>
