<svg width="16" height="18" viewBox="0 0 16 18" fill="none" xmlns="http://www.w3.org/2000/svg">
<path d="M10.4829 17.2962C9.68406 18.1333 8.39129 17.683 8.05198 16.7057C7.77205 15.8995 7.4084 14.9339 7.05406 14.2231C5.99442 12.0971 5.37583 10.8875 3.66974 9.37403C3.44337 9.17322 3.15163 9.01139 2.82905 8.88388C1.69991 8.43756 0.638089 7.2678 0.915812 5.87918L1.26885 4.11401C1.45455 3.18547 2.14894 2.44154 3.06251 2.19239L8.66224 0.665189C11.2078 -0.0290479 13.8017 1.60569 14.2737 4.20164L14.9576 7.96334C15.2924 9.80486 13.8777 11.5 12.006 11.5H11.1225L11.1328 11.5522C11.2129 11.9604 11.3093 12.5225 11.3738 13.1352C11.438 13.7454 11.4721 14.4195 11.4218 15.0477C11.3725 15.6641 11.2379 16.2968 10.9176 16.7774C10.8081 16.9416 10.6455 17.1257 10.4829 17.2962Z" fill="#8F8F8F"/>
</svg>
