<svg width="16" height="16" viewBox="0 0 16 16" fill="none" xmlns="http://www.w3.org/2000/svg">
<path d="M5.35355 11.8536L7 10.2071C7.19526 10.0118 7.19526 9.69526 7 9.5C6.80474 9.30474 6.48815 9.30474 6.29289 9.5L5.5 10.2929L5.5 4.5C5.5 4.22386 5.27614 4 5 4C4.72386 4 4.5 4.22386 4.5 4.5L4.5 10.2929L3.70711 9.5C3.51185 9.30474 3.19526 9.30474 3 9.5C2.80474 9.69526 2.80474 10.0118 3 10.2071L4.64645 11.8536C4.84171 12.0488 5.15829 12.0488 5.35355 11.8536ZM13 5.79289L11.3535 4.14645C11.1583 3.95118 10.8417 3.95118 10.6464 4.14645L8.99996 5.79289C8.8047 5.98816 8.8047 6.30474 8.99996 6.5C9.19522 6.69526 9.51181 6.69526 9.70707 6.5L10.5 5.70711L10.5 11.5C10.5 11.7761 10.7238 12 11 12C11.2761 12 11.5 11.7761 11.5 11.5L11.5 5.70711L12.2929 6.5C12.4881 6.69526 12.8047 6.69526 13 6.5C13.1952 6.30474 13.1952 5.98815 13 5.79289ZM16 8C16 12.4183 12.4183 16 8 16C3.58172 16 0 12.4183 0 8C0 3.58172 3.58172 0 8 0C12.4183 0 16 3.58172 16 8ZM8 15C11.866 15 15 11.866 15 8C15 4.13401 11.866 1 8 1C4.13401 1 1 4.13401 1 8C1 11.866 4.13401 15 8 15Z" fill="#525252"/>
</svg>
