<svg width="12" height="13" viewBox="0 0 12 13" fill="none" xmlns="http://www.w3.org/2000/svg">
<path d="M8.5 6.87891C8.22386 6.87891 8 7.10276 8 7.37891C8 7.65505 8.22386 7.87891 8.5 7.87891H9.5C9.77614 7.87891 10 7.65505 10 7.37891C10 7.10276 9.77614 6.87891 9.5 6.87891H8.5ZM1.5 0.878906C0.671573 0.878906 0 1.55048 0 2.37891V10.3789C0 11.7596 1.11929 12.8789 2.5 12.8789H10C11.1046 12.8789 12 11.9835 12 10.8789V4.87891C12 4.13862 11.5978 3.49228 11 3.14647V2.87891C11 1.77434 10.1046 0.878906 9 0.878906H1.5ZM1.5 1.87891H9C9.55229 1.87891 10 2.32662 10 2.87891H1.5C1.22386 2.87891 1 2.65505 1 2.37891C1 2.10276 1.22386 1.87891 1.5 1.87891ZM1.5 3.87891H10C10.5523 3.87891 11 4.32662 11 4.87891V10.8789C11 11.4312 10.5523 11.8789 10 11.8789H2.5C1.67157 11.8789 1 11.2073 1 10.3789V3.79355C1.15639 3.84883 1.32468 3.87891 1.5 3.87891Z" fill="#525252"/>
</svg>
