<svg width="12" height="14" viewBox="0 0 12 14" fill="none" xmlns="http://www.w3.org/2000/svg">
<path d="M5.31299 1.14054C5.69849 0.776069 6.30151 0.776069 6.68701 1.14054L11.5305 5.71988C11.8302 6.00322 12 6.39744 12 6.80985V12.3791C12 13.2075 11.3284 13.8791 10.5 13.8791H8.5C7.67157 13.8791 7 13.2075 7 12.3791V9.87912C7 9.60298 6.77614 9.37912 6.5 9.37912H5.5C5.22386 9.37912 5 9.60298 5 9.87912V12.3791C5 13.2075 4.32843 13.8791 3.5 13.8791H1.5C0.671573 13.8791 0 13.2075 0 12.3791V6.80985C0 6.39744 0.169802 6.00322 0.46948 5.71988L5.31299 1.14054ZM6 1.86719L1.15649 6.44653C1.0566 6.54097 1 6.67238 1 6.80985V12.3791C1 12.6552 1.22386 12.8791 1.5 12.8791H3.5C3.77614 12.8791 4 12.6552 4 12.3791V9.87912C4 9.0507 4.67157 8.37912 5.5 8.37912H6.5C7.32843 8.37912 8 9.05069 8 9.87912V12.3791C8 12.6552 8.22386 12.8791 8.5 12.8791H10.5C10.7761 12.8791 11 12.6552 11 12.3791V6.80985C11 6.67238 10.9434 6.54097 10.8435 6.44653L6 1.86719Z" fill="#525252"/>
</svg>
