<svg width="14" height="15" viewBox="0 0 14 15" fill="none" xmlns="http://www.w3.org/2000/svg">
<path d="M4 9C4.55228 9 5 8.55228 5 8C5 7.44772 4.55228 7 4 7C3.44772 7 3 7.44772 3 8C3 8.55228 3.44772 9 4 9ZM7 9C7.55228 9 8 8.55228 8 8C8 7.44772 7.55228 7 7 7C6.44772 7 6 7.44772 6 8C6 8.55228 6.44772 9 7 9ZM11 8C11 8.55228 10.5523 9 10 9C9.44771 9 9 8.55228 9 8C9 7.44772 9.44771 7 10 7C10.5523 7 11 7.44772 11 8ZM4 12C4.55228 12 5 11.5523 5 11C5 10.4477 4.55228 10 4 10C3.44772 10 3 10.4477 3 11C3 11.5523 3.44772 12 4 12ZM8 11C8 11.5523 7.55228 12 7 12C6.44772 12 6 11.5523 6 11C6 10.4477 6.44772 10 7 10C7.55228 10 8 10.4477 8 11ZM10 12C10.5523 12 11 11.5523 11 11C11 10.4477 10.5523 10 10 10C9.44771 10 9 10.4477 9 11C9 11.5523 9.44771 12 10 12ZM5.9975 0.384316C6.56767 -0.128106 7.43233 -0.128105 8.0025 0.384317L13.5025 5.32728C13.8191 5.61186 14 6.0176 14 6.4434V13.4996C14 14.3282 13.3284 15 12.5 15H1.5C0.671573 15 0 14.3282 0 13.4996V6.4434C0 6.0176 0.180859 5.61186 0.497502 5.32728L5.9975 0.384316ZM7.33417 1.12839C7.14411 0.957587 6.85589 0.957587 6.66583 1.12839L1.16583 6.07136C1.06029 6.16622 1 6.30147 1 6.4434V13.4996C1 13.7758 1.22386 13.9997 1.5 13.9997H12.5C12.7761 13.9997 13 13.7758 13 13.4996V6.4434C13 6.30147 12.9397 6.16622 12.8342 6.07136L7.33417 1.12839Z" fill="#525252"/>
</svg>
