<svg width="20" height="20" viewBox="0 0 20 20" fill="none" xmlns="http://www.w3.org/2000/svg">
<path d="M19.9832 15.0109C19.9781 15.0656 19.9713 15.1203 19.961 15.1749C19.5524 17.6405 17.7324 19.4383 15.2262 19.894C15.1308 19.9122 15.0406 19.9652 14.9487 20H5.07541C4.9375 19.9602 4.80299 19.9056 4.66338 19.8824C2.11292 19.4582 0.0681254 17.2395 0.0289661 14.7392C-0.0187061 11.7069 0.00683258 8.6747 0.00683258 5.64247C0.00683258 5.27628 0.0119403 4.90015 0.0868537 4.54391C0.628273 2.00048 2.57772 0.308724 5.2065 0.0436111C5.43295 0.0204137 5.6662 0.00881501 5.90286 0.00715805C8.61166 -0.0060976 11.3188 0.00218718 14.0276 0.00715805C14.3255 0.00715805 14.6286 0.0121289 14.9248 0.0436111C15.0031 0.0518959 15.0815 0.0618376 15.1581 0.0750933C17.6319 0.484362 19.5013 2.20428 19.8827 4.6251C19.9355 4.95649 19.9644 5.29285 19.9815 5.62921C20.0155 6.32679 19.99 7.03431 19.9815 7.73686C19.9781 7.94232 19.9781 8.14944 19.9798 8.35491C19.9815 8.4477 19.8963 8.56203 19.8197 8.63328C18.8067 9.58603 17.8073 10.5553 16.7619 11.4766C15.8697 12.2637 14.9725 13.0607 13.9884 13.7301C12.7932 14.542 11.4141 14.7657 9.98564 14.4111C9.59234 14.3133 9.43571 14.4393 9.35569 14.759C9.22118 15.2893 9.10541 15.8261 8.97601 16.3795C8.93004 16.3795 8.85683 16.3928 8.79043 16.3779C7.56798 16.0946 6.40001 14.7905 6.33531 13.571C6.31488 13.1965 6.18719 12.9496 5.91307 12.7011C5.18267 12.0416 4.85918 11.2198 5.01241 10.2472C5.11797 9.56946 5.44487 8.98455 5.89605 8.47255C7.38921 6.77583 9.2978 5.8297 11.5793 5.67726C12.8221 5.59276 13.9458 5.94404 14.7409 6.97135C15.0678 7.39222 15.0457 7.67887 14.6677 8.05997C14.5571 8.17099 14.4345 8.27869 14.3017 8.36154C12.9941 9.16847 11.5639 9.53632 10.0231 9.4137C8.9692 9.3292 8.5725 8.85034 8.58953 7.82965C8.59123 7.75177 8.5691 7.6739 8.55207 7.54466C7.89828 7.77663 7.51179 8.21241 7.253 8.76749C6.83928 9.6523 7.10488 10.4162 7.76378 11.0607C6.52941 12.8254 6.91759 15.0192 8.5708 15.5627C8.73595 13.4683 10.2649 12.5304 11.9845 11.755C12.5395 11.5048 13.0843 11.238 13.6445 10.9994C15.4952 10.2124 16.5184 8.85365 16.6785 6.8885C16.8368 4.93163 16.1388 3.14543 14.1927 2.23411C12.7608 1.5647 11.2932 1.61275 9.829 2.15954C5.25928 3.86455 2.18102 9.28446 2.77863 13.3937C3.00677 14.9595 3.69632 16.2768 5.02603 17.2329C7.67354 19.1351 11.3528 18.9495 14.0378 16.7888C15.3641 15.7217 16.3924 14.4011 17.4089 13.0689C17.998 12.2952 18.5973 11.528 19.2102 10.7741C19.4077 10.5305 19.6665 10.335 19.9815 10.04C19.9832 10.0384 19.9849 10.0367 19.9866 10.0351C19.9866 11.417 19.9883 12.6613 19.9866 13.9041C19.9866 14.2702 20.0189 14.6464 19.9832 15.0109Z" fill="#E87803"/>
</svg>
