<svg width="14" height="14" viewBox="0 0 14 14" fill="none" xmlns="http://www.w3.org/2000/svg">
<path d="M3.02632 10.8486C3.05757 10.8486 3.08882 10.8455 3.12007 10.8408L5.74819 10.3798C5.77944 10.3736 5.80913 10.3595 5.83101 10.3361L12.4544 3.71265C12.4689 3.69819 12.4804 3.68102 12.4883 3.66212C12.4961 3.64322 12.5001 3.62296 12.5001 3.60249C12.5001 3.58203 12.4961 3.56177 12.4883 3.54286C12.4804 3.52396 12.4689 3.50679 12.4544 3.49234L9.85757 0.8939C9.82788 0.864212 9.78882 0.848587 9.74663 0.848587C9.70444 0.848587 9.66538 0.864212 9.63569 0.8939L3.01226 7.51734C2.98882 7.54078 2.97476 7.5689 2.96851 7.60015L2.50757 10.2283C2.49237 10.312 2.4978 10.3981 2.52339 10.4793C2.54898 10.5604 2.59397 10.6341 2.65444 10.6939C2.75757 10.7939 2.88726 10.8486 3.02632 10.8486ZM4.07944 8.12359L9.74663 2.45796L10.8919 3.60327L5.22476 9.2689L3.83569 9.51421L4.07944 8.12359ZM12.7498 12.1611H1.24976C0.973193 12.1611 0.749756 12.3845 0.749756 12.6611V13.2236C0.749756 13.2923 0.806006 13.3486 0.874756 13.3486H13.1248C13.1935 13.3486 13.2498 13.2923 13.2498 13.2236V12.6611C13.2498 12.3845 13.0263 12.1611 12.7498 12.1611Z" fill="#5360ED"/>
</svg>
