<svg width="16" height="14" viewBox="0 0 16 14" fill="none" xmlns="http://www.w3.org/2000/svg">
<path d="M2 2.5C2 1.11929 3.11929 0 4.5 0H13.5C14.8807 0 16 1.11929 16 2.5V9.5C16 10.8807 14.8807 12 13.5 12H4.5C3.11929 12 2 10.8807 2 9.5V2.5ZM8.74649 6.93097L3 3.961V9.5C3 10.3284 3.67157 11 4.5 11H13.5C14.3284 11 15 10.3284 15 9.5V3.963L9.25351 6.93097L9.17249 6.96932C9.03339 7.02045 8.87688 7.00767 8.74649 6.93097ZM13.5 1H4.5C3.67157 1 3 1.67157 3 2.5V2.801L9 5.91991L15 2.802V2.5C15 1.67157 14.3284 1 13.5 1ZM11.5 14C12.3179 14 13.0441 13.6072 13.5002 13H4.5C2.567 13 1 11.433 1 9.5V2.5C0.392776 2.9561 0 3.68209 0 4.5V9.5C0 11.9853 2.01472 14 4.5 14H11.5Z" fill="#242424"/>
</svg>
