<svg width="21" height="21" viewBox="0 0 21 21" fill="none" xmlns="http://www.w3.org/2000/svg">
<path d="M11.4888 1.04636C10.9808 -0.0773841 9.38493 -0.0773841 8.87694 1.04636C8.50424 1.87082 7.47023 2.14788 6.73523 1.62023C5.73342 0.901038 4.35137 1.69896 4.4733 2.92615C4.56276 3.82651 3.80582 4.58345 2.90546 4.49399C1.67827 4.37206 0.880347 5.75411 1.59954 6.75592C2.12719 7.49092 1.85013 8.52493 1.02567 8.89763C-0.0980749 9.40563 -0.098075 11.0015 1.02567 11.5095C1.85013 11.8822 2.12719 12.9162 1.59954 13.6512C0.880347 14.653 1.67827 16.035 2.90546 15.9131C3.80582 15.8236 4.56276 16.5806 4.4733 17.4809C4.35137 18.7081 5.73342 19.5061 6.73523 18.7869C7.47023 18.2592 8.50424 18.5363 8.87694 19.3607C9.38493 20.4845 10.9808 20.4845 11.4888 19.3607C11.8615 18.5363 12.8955 18.2592 13.6305 18.7869C14.6323 19.5061 16.0144 18.7081 15.8924 17.4809C15.803 16.5806 16.5599 15.8236 17.4603 15.9131C18.6874 16.035 19.4854 14.653 18.7662 13.6512C18.2385 12.9162 18.5156 11.8822 19.3401 11.5095C20.4638 11.0015 20.4638 9.40563 19.3401 8.89763C18.5156 8.52493 18.2385 7.49092 18.7662 6.75592C19.4854 5.75411 18.6874 4.37206 17.4603 4.49399C16.5599 4.58345 15.803 3.82651 15.8924 2.92615C16.0144 1.69896 14.6323 0.901037 13.6305 1.62023C12.8955 2.14788 11.8615 1.87082 11.4888 1.04636ZM7.76882 6.5825C7.76882 5.24928 8.84961 4.1685 10.1828 4.1685C11.516 4.1685 12.5968 5.24928 12.5968 6.5825C12.5968 7.91571 11.516 8.99649 10.1828 8.99649C8.84961 8.99649 7.76882 7.91571 7.76882 6.5825ZM7.1653 10.2035L13.2003 10.2035C14.2002 10.2035 15.0108 11.0141 15.0108 12.014C15.0108 13.3611 14.4568 14.4404 13.5478 15.1701C12.653 15.8882 11.4539 16.2385 10.1828 16.2385C8.91176 16.2385 7.7126 15.8882 6.81789 15.1701C5.9088 14.4404 5.35483 13.3611 5.35483 12.014C5.35483 11.0141 6.1654 10.2035 7.1653 10.2035Z" fill="#5360ED"/>
</svg>
