<svg width="20" height="13" viewBox="0 0 20 13" fill="none" xmlns="http://www.w3.org/2000/svg">
<path d="M9.83334 4.00462C12.0425 4.00462 13.8333 5.79549 13.8333 8.00462C13.8333 10.2138 12.0425 12.0046 9.83334 12.0046C7.6242 12.0046 5.83334 10.2138 5.83334 8.00462C5.83334 5.79549 7.6242 4.00462 9.83334 4.00462ZM9.83334 0.5C14.4469 0.5 18.4294 3.65001 19.5345 8.06439C19.635 8.4662 19.3908 8.87348 18.989 8.97406C18.5872 9.07465 18.1799 8.83045 18.0794 8.42863C17.1405 4.67796 13.7547 2 9.83334 2C5.91027 2 2.52344 4.68026 1.5862 8.43315C1.48583 8.83502 1.07869 9.07944 0.676823 8.97908C0.274952 8.87872 0.0305309 8.47158 0.130894 8.06971C1.23398 3.65272 5.21782 0.5 9.83334 0.5Z" fill="#8F8F8F"/>
</svg>
