<svg width="33" height="32" viewBox="0 0 33 32" fill="none" xmlns="http://www.w3.org/2000/svg">
<g id="Eye">
<path id="Shape" d="M9.75909 17.6021C10.4425 14.3269 13.2944 12 16.5 12C19.7057 12 22.5574 14.3269 23.2409 17.6021C23.2974 17.8725 23.5622 18.0459 23.8325 17.9895C24.1029 17.933 24.2763 17.6682 24.2199 17.3979C23.4425 13.6731 20.1934 11 16.5 11C12.8066 11 9.55742 13.6731 8.78017 17.3979C8.72377 17.6682 8.89718 17.933 9.1675 17.9895C9.43782 18.0459 9.70268 17.8725 9.75909 17.6021ZM16.4895 14C18.4225 14 19.9895 15.567 19.9895 17.5C19.9895 19.433 18.4225 21 16.4895 21C14.5565 21 12.9895 19.433 12.9895 17.5C12.9895 15.567 14.5565 14 16.4895 14Z" fill="#5360ED"/>
</g>
</svg>
