<svg width="13" height="13" viewBox="0 0 13 13" fill="none" xmlns="http://www.w3.org/2000/svg">
<path d="M9.4984 0C10.8789 0 11.998 1.11907 11.998 2.49951V3.99922H11.5429C11.474 3.99645 11.405 3.99645 11.3362 3.99922H0.999832V9.49814C0.999832 10.3264 1.67129 10.9978 2.49958 10.9978H4.29594L4.04598 11.9976H2.49958C1.1191 11.9976 0 10.8786 0 9.49814V2.49951C0 1.11907 1.1191 0 2.49958 0H9.4984ZM9.4984 0.999804H2.49958C1.67129 0.999804 0.999832 1.67125 0.999832 2.49951V2.99941H10.9982V2.49951C10.9982 1.67125 10.3267 0.999804 9.4984 0.999804ZM11.3589 4.99902C11.4126 4.99625 11.4665 4.99626 11.5202 4.99902C11.5405 5.00006 11.5608 5.0015 11.5811 5.00334C11.932 5.0351 12.2743 5.1853 12.543 5.45396C13.1523 6.06332 13.1523 7.05128 12.543 7.66064L8.25531 11.9482C7.89946 12.304 7.45357 12.5565 6.96534 12.6785L5.75438 12.9813C5.30813 13.0928 4.9039 12.6886 5.01547 12.2424L5.31814 11.0314L5.32676 10.9978C5.45186 10.5228 5.7009 10.0892 6.04858 9.7415L10.3362 5.45396C10.5274 5.2628 10.7558 5.1316 10.9982 5.06038C11.0871 5.03426 11.1778 5.01618 11.2693 5.0062C11.2991 5.00295 11.329 5.00056 11.3589 4.99902C11.3589 4.99902 11.3589 4.99902 11.3589 4.99902Z" fill="#525252"/>
</svg>
