<svg width="18" height="17" viewBox="0 0 18 17" fill="none" xmlns="http://www.w3.org/2000/svg">
<path d="M5.75086 0L5.64909 0.0068469C5.28301 0.0565093 5.00086 0.370304 5.00086 0.75L5 13.442L1.78011 10.2244L1.69596 10.1518C1.40226 9.93408 0.985604 9.95846 0.719448 10.2248C0.426677 10.5179 0.426876 10.9927 0.719892 11.2855L5.22365 15.7855L5.3078 15.8581C5.6015 16.0758 6.01816 16.0514 6.28431 15.7851L10.7806 11.2851L10.8531 11.2009C11.0709 10.9072 11.0465 10.4905 10.7801 10.2244L10.696 10.1518C10.4023 9.93408 9.9856 9.95846 9.71945 10.2248L6.5 13.446L6.50086 0.75L6.49401 0.64823C6.44435 0.282154 6.13056 0 5.75086 0ZM9.25 0.5C8.83579 0.5 8.5 0.835786 8.5 1.25C8.5 1.66421 8.83579 2 9.25 2H17.25C17.6642 2 18 1.66421 18 1.25C18 0.835786 17.6642 0.5 17.25 0.5H9.25ZM8.5 4.25C8.5 3.83579 8.83579 3.5 9.25 3.5H14.25C14.6642 3.5 15 3.83579 15 4.25C15 4.66421 14.6642 5 14.25 5H9.25C8.83579 5 8.5 4.66421 8.5 4.25ZM9.25 6.5C8.83579 6.5 8.5 6.83579 8.5 7.25C8.5 7.66421 8.83579 8 9.25 8H11.25C11.6642 8 12 7.66421 12 7.25C12 6.83579 11.6642 6.5 11.25 6.5H9.25Z" fill="#525252"/>
</svg>
