<svg width="14" height="12" viewBox="0 0 14 12" fill="none" xmlns="http://www.w3.org/2000/svg">
<path d="M0 2C0 0.895431 0.89543 0 2 0H9.99999C11.1046 0 12 0.895431 12 2V2.20141L6.00009 5.43212L0 2.2013V2ZM6.23714 6.44024L12 3.33716V8C12 9.10457 11.1046 10 9.99999 10H2C0.89543 10 0 9.10457 0 8V3.33706L5.76304 6.44024C5.91103 6.51992 6.08915 6.51992 6.23714 6.44024ZM4.00001 12C3.25973 12 2.61339 11.5978 2.26758 11H10C11.6569 11 13 9.65685 13 8V2.26756C13.5978 2.61337 14 3.25972 14 4V8C14 10.2091 12.2091 12 10 12H4.00001Z" fill="#A3A3A3"/>
</svg>
