<svg width="10" height="10" viewBox="0 0 10 10" fill="none" xmlns="http://www.w3.org/2000/svg">
<path d="M4 0C1.79086 0 0 1.79086 0 4C0 6.20914 1.79086 8 4 8C4.83335 8 5.60717 7.74516 6.2478 7.30916L8.71973 9.78021C9.01267 10.0731 9.48755 10.073 9.78039 9.78002C10.0732 9.48708 10.0731 9.0122 9.7802 8.71936L7.30859 6.24863C7.74494 5.60784 8 4.83371 8 4C8 1.79086 6.20914 0 4 0ZM1.5 4C1.5 2.61929 2.61929 1.5 4 1.5C5.38071 1.5 6.5 2.61929 6.5 4C6.5 5.38071 5.38071 6.5 4 6.5C2.61929 6.5 1.5 5.38071 1.5 4Z" fill="#525252"/>
</svg>
