<svg width="16" height="14" viewBox="0 0 16 14" fill="none" xmlns="http://www.w3.org/2000/svg">
<path d="M0.5 0C0.223858 0 0 0.223858 0 0.5V5.5C0 5.77614 0.223858 6 0.5 6H2.5C2.77614 6 3 5.77614 3 5.5C3 5.22386 2.77614 5 2.5 5H1V1H2.5C2.77614 1 3 0.776142 3 0.5C3 0.223858 2.77614 0 2.5 0H0.5ZM0.5 8C0.223858 8 0 8.22386 0 8.5V13.5C0 13.7761 0.223858 14 0.5 14H2.5C2.77614 14 3 13.7761 3 13.5C3 13.2239 2.77614 13 2.5 13H1V9H2.5C2.77614 9 3 8.77614 3 8.5C3 8.22386 2.77614 8 2.5 8H0.5ZM4 1.5C4 1.22386 4.22386 1 4.5 1H15.5C15.7761 1 16 1.22386 16 1.5C16 1.77614 15.7761 2 15.5 2H4.5C4.22386 2 4 1.77614 4 1.5ZM4.5 9C4.22386 9 4 9.22386 4 9.5C4 9.77614 4.22386 10 4.5 10H15.5C15.7761 10 16 9.77614 16 9.5C16 9.22386 15.7761 9 15.5 9H4.5ZM4 4.5C4 4.22386 4.22386 4 4.5 4H15.5C15.7761 4 16 4.22386 16 4.5C16 4.77614 15.7761 5 15.5 5H4.5C4.22386 5 4 4.77614 4 4.5ZM4.5 12C4.22386 12 4 12.2239 4 12.5C4 12.7761 4.22386 13 4.5 13H15.5C15.7761 13 16 12.7761 16 12.5C16 12.2239 15.7761 12 15.5 12H4.5Z" fill="#242424"/>
</svg>
