<svg width="12" height="12" viewBox="0 0 12 12" fill="none" xmlns="http://www.w3.org/2000/svg">
<g id="icon">
<path id="Shape" d="M2.85355 3.85355C2.65829 4.04882 2.34171 4.04882 2.14645 3.85355C1.95118 3.65829 1.95118 3.34171 2.14645 3.14645L5.14645 0.146447C5.34171 -0.0488155 5.65829 -0.0488155 5.85355 0.146447L8.85355 3.14645C9.04882 3.34171 9.04882 3.65829 8.85355 3.85355C8.65829 4.04882 8.34171 4.04882 8.14645 3.85355L6 1.70711V10.2929L8.14645 8.14645C8.34171 7.95118 8.65829 7.95118 8.85355 8.14645C9.04882 8.34171 9.04882 8.65829 8.85355 8.85355L5.85355 11.8536C5.65829 12.0488 5.34171 12.0488 5.14645 11.8536L2.14645 8.85355C1.95118 8.65829 1.95118 8.34171 2.14645 8.14645C2.34171 7.95118 2.65829 7.95118 2.85355 8.14645L5 10.2929V1.70711L2.85355 3.85355Z" fill="#525252"/>
</g>
</svg>
