<svg width="14" height="15" viewBox="0 0 14 15" fill="none" xmlns="http://www.w3.org/2000/svg">
<path d="M8.5 8.87891C9.32843 8.87891 10 9.55048 10 10.3789V10.8789C10 12.8503 8.14049 14.8789 5 14.8789C1.85951 14.8789 0 12.8503 0 10.8789V10.3789C0 9.55048 0.671573 8.87891 1.5 8.87891H8.5ZM8.5 9.87891H1.5C1.22386 9.87891 1 10.1028 1 10.3789V10.8789C1 12.3166 2.43216 13.8789 5 13.8789C7.56784 13.8789 9 12.3166 9 10.8789V10.3789C9 10.1028 8.77614 9.87891 8.5 9.87891ZM12 6.87891C12.4142 6.87891 12.75 7.21469 12.75 7.62891C12.75 8.04312 12.4142 8.37891 12 8.37891C11.5858 8.37891 11.25 8.04312 11.25 7.62891C11.25 7.21469 11.5858 6.87891 12 6.87891ZM5 2.37891C6.51878 2.37891 7.75 3.61012 7.75 5.12891C7.75 6.64769 6.51878 7.87891 5 7.87891C3.48122 7.87891 2.25 6.64769 2.25 5.12891C2.25 3.61012 3.48122 2.37891 5 2.37891ZM5 3.37891C4.0335 3.37891 3.25 4.16241 3.25 5.12891C3.25 6.0954 4.0335 6.87891 5 6.87891C5.9665 6.87891 6.75 6.0954 6.75 5.12891C6.75 4.16241 5.9665 3.37891 5 3.37891ZM12 0.878906C13.1046 0.878906 14 1.77434 14 2.87891C14 3.60944 13.7882 4.0186 13.246 4.58681L12.982 4.85636C12.6045 5.24993 12.5 5.46201 12.5 5.87891C12.5 6.15505 12.2761 6.37891 12 6.37891C11.7239 6.37891 11.5 6.15505 11.5 5.87891C11.5 5.14837 11.7118 4.73922 12.254 4.171L12.518 3.90145C12.8955 3.50789 13 3.29581 13 2.87891C13 2.32662 12.5523 1.87891 12 1.87891C11.4477 1.87891 11 2.32662 11 2.87891C11 3.15505 10.7761 3.37891 10.5 3.37891C10.2239 3.37891 10 3.15505 10 2.87891C10 1.77434 10.8954 0.878906 12 0.878906Z" fill="#525252"/>
</svg>
