<svg width="20" height="21" viewBox="0 0 20 21" fill="none" xmlns="http://www.w3.org/2000/svg">
<path d="M8.99998 0.400024C6.34901 0.400024 4.19998 2.54906 4.19998 5.20002C4.19998 7.85099 6.34901 10 8.99998 10C11.6509 10 13.8 7.85099 13.8 5.20002C13.8 2.54906 11.6509 0.400024 8.99998 0.400024ZM3.01045 11.2C1.68376 11.2 0.599976 12.2643 0.599976 13.6C0.599976 15.6295 1.59935 17.1596 3.16197 18.1559C4.70034 19.1368 6.77429 19.6 8.99998 19.6C10.2736 19.6 11.4976 19.4483 12.6 19.1347V16.7741C11.8531 15.928 11.4 14.8166 11.4 13.5992C11.4 12.7253 11.6336 11.9059 12.0417 11.2L3.01045 11.2ZM16.2 17.1991C18.1882 17.1991 19.8 15.5874 19.8 13.5992C19.8 11.6111 18.1882 9.99944 16.2 9.99944C14.2118 9.99944 12.6 11.6111 12.6 13.5992C12.6 15.5874 14.2118 17.1991 16.2 17.1991ZM16.2 18.399C17.0743 18.399 17.894 18.1653 18.6 17.7569V20.4993C18.6 20.732 18.3465 20.8761 18.1466 20.7571L16.2 19.5989L14.2534 20.7571C14.0534 20.8761 13.8 20.732 13.8 20.4993V17.7569C14.506 18.1653 15.3257 18.399 16.2 18.399Z" fill="#5360ED"/>
</svg>
