<svg width="17" height="17" viewBox="0 0 17 17" fill="none" xmlns="http://www.w3.org/2000/svg">
<path d="M7 0C4.79086 0 3 1.79086 3 4C3 6.20914 4.79086 8 7 8C9.20914 8 11 6.20914 11 4C11 1.79086 9.20914 0 7 0ZM4 4C4 2.34315 5.34315 1 7 1C8.65685 1 10 2.34315 10 4C10 5.65685 8.65685 7 7 7C5.34315 7 4 5.65685 4 4ZM2.00873 9C0.903151 9 0 9.88687 0 11C0 12.6912 0.83281 13.9663 2.13499 14.7966C3.41697 15.614 5.14526 16 7 16C7.41085 16 7.8155 15.9811 8.21047 15.9427C7.97298 15.6472 7.7654 15.3266 7.59233 14.9855C7.39798 14.9951 7.20041 15 7 15C5.26489 15 3.74318 14.636 2.67262 13.9534C1.62226 13.2837 1 12.3088 1 11C1 10.4467 1.44786 10 2.00873 10L7.59971 10C7.7826 9.64222 8.00353 9.30711 8.25716 9L2.00873 9ZM12.5 17C10.0147 17 8 14.9853 8 12.5C8 10.0147 10.0147 8 12.5 8C14.9853 8 17 10.0147 17 12.5C17 14.9853 14.9853 17 12.5 17ZM13.1244 15.0049C13.1244 14.66 12.8448 14.3804 12.4999 14.3804C12.155 14.3804 11.8754 14.66 11.8754 15.0049C11.8754 15.3498 12.155 15.6294 12.4999 15.6294C12.8448 15.6294 13.1244 15.3498 13.1244 15.0049ZM14.3534 11.4529C14.3534 10.3492 13.531 9.50345 12.5 9.50345C11.452 9.50345 10.6357 10.3208 10.6466 11.4577C10.6492 11.7339 10.8752 11.9556 11.1514 11.9529C11.4275 11.9503 11.6492 11.7243 11.6465 11.4481C11.641 10.8691 12.0062 10.5034 12.5 10.5034C12.9723 10.5034 13.3534 10.8953 13.3534 11.4529C13.3534 11.6547 13.2822 11.7679 12.9937 11.9968L12.7157 12.2118C12.2099 12.6161 12 12.9294 11.9999 13.5003C11.9999 13.7764 12.2238 14.0003 12.4999 14.0003C12.7454 14.0003 12.9495 13.8234 12.9919 13.5902L13.0034 13.4341C13.0202 13.2863 13.103 13.1804 13.3487 12.9858L13.6257 12.7715C14.139 12.3607 14.3534 12.0387 14.3534 11.4529Z" fill="#525252"/>
</svg>
