<svg width="15" height="16" viewBox="0 0 15 16" fill="none" xmlns="http://www.w3.org/2000/svg">
<path d="M11 0.75C11 0.335786 11.3358 0 11.75 0H14.25C14.6642 0 15 0.335786 15 0.75V3.25C15 3.66421 14.6642 4 14.25 4C13.8358 4 13.5 3.66421 13.5 3.25V2.56066L9.03033 7.03033C8.73744 7.32322 8.26256 7.32322 7.96967 7.03033L5.5 4.56066L1.28033 8.78033C0.987437 9.07322 0.512563 9.07322 0.21967 8.78033C-0.0732232 8.48744 -0.0732232 8.01256 0.21967 7.71967L4.96967 2.96967C5.26256 2.67678 5.73744 2.67678 6.03033 2.96967L8.5 5.43934L12.4393 1.5H11.75C11.3358 1.5 11 1.16421 11 0.75ZM0.75 12C1.16421 12 1.5 12.3358 1.5 12.75V15.25C1.5 15.6642 1.16421 16 0.75 16C0.335786 16 0 15.6642 0 15.25V12.75C0 12.3358 0.335786 12 0.75 12ZM5.5 9.75C5.5 9.33579 5.16421 9 4.75 9C4.33579 9 4 9.33579 4 9.75V15.25C4 15.6642 4.33579 16 4.75 16C5.16421 16 5.5 15.6642 5.5 15.25V9.75ZM8.75 11C9.16421 11 9.5 11.3358 9.5 11.75V15.25C9.5 15.6642 9.16421 16 8.75 16C8.33579 16 8 15.6642 8 15.25V11.75C8 11.3358 8.33579 11 8.75 11ZM13.5 7.75C13.5 7.33579 13.1642 7 12.75 7C12.3358 7 12 7.33579 12 7.75V15.25C12 15.6642 12.3358 16 12.75 16C13.1642 16 13.5 15.6642 13.5 15.25V7.75Z" fill="#525252"/>
</svg>
