<svg width="16" height="8" viewBox="0 0 16 8" fill="none" xmlns="http://www.w3.org/2000/svg">
<path d="M6 0C6.27614 0 6.5 0.223858 6.5 0.5C6.5 0.74546 6.32312 0.949608 6.08988 0.991944L6 1H4C2.34315 1 1 2.34315 1 4C1 5.59058 2.23784 6.89205 3.80275 6.99362L4 7H6C6.27614 7 6.5 7.22386 6.5 7.5C6.5 7.74546 6.32312 7.94961 6.08988 7.99194L6 8H4C1.79086 8 0 6.20914 0 4C0 1.8645 1.67346 0.119855 3.78053 0.0059185L4 0H6ZM12 0C14.2091 0 16 1.79086 16 4C16 6.1355 14.3265 7.88014 12.2195 7.99408L12 8H10C9.72386 8 9.5 7.77614 9.5 7.5C9.5 7.25454 9.67688 7.05039 9.91012 7.00806L10 7H12C13.6569 7 15 5.65685 15 4C15 2.40942 13.7622 1.10795 12.1973 1.00638L12 1H10C9.72386 1 9.5 0.776142 9.5 0.5C9.5 0.25454 9.67688 0.0503916 9.91012 0.00805569L10 0H12ZM4 3.5H12C12.2761 3.5 12.5 3.72386 12.5 4C12.5 4.24546 12.3231 4.44961 12.0899 4.49194L12 4.5H4C3.72386 4.5 3.5 4.27614 3.5 4C3.5 3.75454 3.67688 3.55039 3.91012 3.50806L4 3.5H12H4Z" fill="#242424"/>
</svg>
