<svg width="16" height="13" viewBox="0 0 16 13" fill="none" xmlns="http://www.w3.org/2000/svg">
<path d="M14.0001 8.24162C13.26 8.73608 12.39 9 11.5 9C10.3065 9 9.16193 8.5259 8.31802 7.68198C7.47411 6.83807 7 5.69348 7 4.5C7 3.60999 7.26392 2.73996 7.75839 1.99994C8.25285 1.25991 8.95566 0.683138 9.77792 0.342544C10.6002 0.00194979 11.505 -0.0871652 12.3779 0.0864683C13.2508 0.260102 14.0526 0.688685 14.682 1.31802C15.3113 1.94736 15.7399 2.74918 15.9135 3.6221C16.0872 4.49501 15.9981 5.39981 15.6575 6.22208C15.3169 7.04434 14.7401 7.74715 14.0001 8.24162ZM11.8536 2.14645C11.7598 2.05268 11.6326 2 11.5 2C11.3674 2 11.2402 2.05268 11.1464 2.14645C11.0527 2.24022 11 2.36739 11 2.5V4H9.5C9.36739 4 9.24021 4.05268 9.14645 4.14645C9.05268 4.24022 9 4.36739 9 4.5C9 4.63261 9.05268 4.75979 9.14645 4.85356C9.24021 4.94732 9.36739 5 9.5 5H11V6.5C11 6.63261 11.0527 6.75979 11.1464 6.85356C11.2402 6.94732 11.3674 7 11.5 7C11.6326 7 11.7598 6.94732 11.8536 6.85356C11.9473 6.75979 12 6.63261 12 6.5V5H13.5C13.6326 5 13.7598 4.94732 13.8536 4.85356C13.9473 4.75979 14 4.63261 14 4.5C14 4.36739 13.9473 4.24022 13.8536 4.14645C13.7598 4.05268 13.6326 4 13.5 4H12V2.5C12 2.36739 11.9473 2.24022 11.8536 2.14645ZM6.02242 4H0.5L0.410124 4.00806C0.176875 4.05039 0 4.25454 0 4.5C0 4.77614 0.223858 5 0.5 5H6.02242C6.00758 4.83532 6 4.66854 6 4.5C6 4.33146 6.00758 4.16468 6.02242 4ZM7.25716 8H2.5L2.41012 8.00806C2.17688 8.05039 2 8.25454 2 8.5C2 8.77614 2.22386 9 2.5 9H8.33692C7.93379 8.71611 7.57052 8.37943 7.25716 8ZM4.41012 12.0081L4.5 12H9.5C9.77614 12 10 12.2239 10 12.5C10 12.7455 9.82312 12.9496 9.58988 12.9919L9.5 13H4.5C4.22386 13 4 12.7761 4 12.5C4 12.2545 4.17688 12.0504 4.41012 12.0081Z" fill="#525252"/>
</svg>
