<svg width="33" height="33" viewBox="0 0 33 33" fill="none" xmlns="http://www.w3.org/2000/svg">
<path fill-rule="evenodd" clip-rule="evenodd" d="M5.25766 4.68612C7.43491 2.47497 9.40935 1.31829 12.4021 0.499947C13.9652 0.0724797 14.7023 -0.155658 15.0493 0.120847C15.3814 0.385452 15.3563 1.1122 15.3563 2.56865V5.23504L13.94 5.50486C12.0921 5.85712 10.6621 6.6263 9.4185 7.93782C7.86685 9.57451 6.20656 12.3466 6.20656 13.3012C6.20656 15.1938 5.90805 15.3862 2.97442 15.3862H0.205106L0.538309 13.5474C1.05107 10.7157 3.08956 6.8876 5.25766 4.68612ZM24.0279 5.64112C23.697 4.29437 23.3101 2.84388 23.1682 2.41806C22.9567 1.78321 23.0531 1.81805 23.7054 2.61162C27.4293 7.14425 27.2551 14.094 23.3032 18.6529C20.9555 21.3611 19.2171 22.1458 15.5469 22.1539C12.8657 22.1597 12.2465 22.02 10.4257 20.9992L8.35408 19.8379L10.2351 19.6273C12.9084 19.3277 14.3788 18.4044 15.3174 16.436C16.4173 14.1288 16.3715 11.6146 15.1985 9.85865L14.2778 8.48171L15.4219 8.88662C16.0513 9.10921 17.0658 9.9922 17.6765 10.8485C18.6056 12.1503 18.7874 12.7805 18.7874 14.6956C18.7874 15.9548 18.6098 17.3225 18.3928 17.7343C17.2266 19.9467 21.394 16.803 22.7565 14.4424C24.3272 11.7206 24.7698 8.65862 24.0279 5.64112ZM19.5499 11.9022C18.6227 10.9607 18.5701 9.69103 19.4184 8.73913C20.1923 7.87047 21.9544 7.81821 22.7634 8.63926C23.6524 9.54238 23.5213 11.3583 22.5148 12.0737C21.3745 12.8847 20.466 12.8324 19.5499 11.9022ZM6.70332 29.8682C3.13073 27.1089 0.6096 22.9309 0.223025 19.1283L0 16.9346H3.10328C5.93398 16.9346 6.20656 17.0015 6.20656 17.6952C6.20656 18.9862 7.38039 22.0955 8.37314 23.4333C9.56298 25.0371 11.7856 26.4737 14.0128 27.0787L15.7375 27.5471V30.2127V32.8787L13.736 32.602C11.2645 32.2601 8.3171 31.1143 6.70332 29.8682Z" fill="#5360ED"/>
<path d="M26.6585 18.7017C26.1575 22.4133 22.2418 26.5081 18.5015 27.2328L17.2625 27.4728V30.1392C17.2625 32.0182 17.4032 32.804 17.739 32.7994C19.2914 32.7773 23.6848 31.5262 25.039 30.7206C28.7526 28.5106 32.3805 23.028 32.7892 19.0079L33 16.9346H29.9486H26.8971L26.6585 18.7017Z" fill="#5360ED"/>
</svg>
