<svg width="12" height="12" viewBox="0 0 12 12" fill="none" xmlns="http://www.w3.org/2000/svg">
<path d="M6.00001 0C2.68631 0 1.3882e-05 2.68629 1.3882e-05 6C1.3882e-05 7.03957 0.264804 8.01862 0.730859 8.87202L0.0192519 11.3626C-0.0317031 11.541 0.0202529 11.7329 0.154224 11.8612C0.288196 11.9894 0.482167 12.033 0.658128 11.9743L2.99618 11.195C3.87989 11.707 4.90639 12 6.00001 12C9.31372 12 12 9.31371 12 6C12 2.68629 9.31372 0 6.00001 0ZM4 5C4 4.72386 4.22386 4.5 4.5 4.5H7.5C7.77614 4.5 8 4.72386 8 5C8 5.27614 7.77614 5.5 7.5 5.5H4.5C4.22386 5.5 4 5.27614 4 5ZM4.5 6.5H6.5C6.77614 6.5 7 6.72386 7 7C7 7.27614 6.77614 7.5 6.5 7.5H4.5C4.22386 7.5 4 7.27614 4 7C4 6.72386 4.22386 6.5 4.5 6.5Z" fill="#EEF0FF"/>
</svg>
