<svg width="13" height="13" viewBox="0 0 13 13" fill="none" xmlns="http://www.w3.org/2000/svg">
<path d="M5.20669 1H5.17539L4.06235 0.109565C3.97369 0.0386405 3.86354 0 3.75 0H2C0.895431 0 0 0.895431 0 2V2.49998H3.5567L5.20669 1ZM6.6933 1L4.08633 3.36995C3.9943 3.45362 3.87438 3.49998 3.75 3.49998H0V8C0 9.10457 0.895431 10 2 10H3.20703C3.07217 9.52317 3 9.02001 3 8.5C3 5.46243 5.46243 3 8.5 3C9.82963 3 11.0491 3.47182 12 4.25716V3C12 1.89543 11.1046 1 10 1H6.6933ZM8.5 13C10.9853 13 13 10.9853 13 8.5C13 6.01472 10.9853 4 8.5 4C6.01472 4 4 6.01472 4 8.5C4 10.9853 6.01472 13 8.5 13ZM8.5 6C8.77614 6 9 6.22386 9 6.5V8H10.5C10.7761 8 11 8.22386 11 8.5C11 8.77614 10.7761 9 10.5 9H9V10.5C9 10.7761 8.77614 11 8.5 11C8.22386 11 8 10.7761 8 10.5V9H6.5C6.22386 9 6 8.77614 6 8.5C6 8.22386 6.22386 8 6.5 8H8V6.5C8 6.22386 8.22386 6 8.5 6Z" fill="#EEF0FF"/>
</svg>
