<svg width="16" height="20" viewBox="0 0 16 20" fill="none" xmlns="http://www.w3.org/2000/svg">
<path d="M13.7542 11.9999C14.9962 11.9999 16.003 13.0068 16.003 14.2488V15.1673C16.003 15.7406 15.8238 16.2997 15.4905 16.7662C13.9446 18.9294 11.4203 20.0011 8 20.0011C4.57903 20.0011 2.05607 18.9289 0.513908 16.7646C0.181945 16.2987 0.00354004 15.7409 0.00354004 15.1688V14.2488C0.00354004 13.0068 1.0104 11.9999 2.25242 11.9999H13.7542ZM8 0.00463867C10.7614 0.00463867 13 2.24321 13 5.00464C13 7.76606 10.7614 10.0046 8 10.0046C5.23857 10.0046 3 7.76606 3 5.00464C3 2.24321 5.23857 0.00463867 8 0.00463867Z" fill="#5360ED"/>
</svg>
