<svg width="16" height="16" viewBox="0 0 16 16" fill="none" xmlns="http://www.w3.org/2000/svg">
<path d="M6.99027 0.598149C7.04442 0.327369 6.86881 0.063958 6.59803 0.00980499C6.32725 -0.044348 6.06384 0.131263 6.00968 0.402044L5.08939 5.00379L1.50005 5.00342C1.22391 5.00339 1.00003 5.22722 1 5.50337C0.999971 5.77951 1.22381 6.00339 1.49995 6.00342L4.8894 6.00377L4.09088 9.99659L0.500051 9.99622C0.223909 9.99619 2.84395e-05 10.22 2.70718e-09 10.4962C-2.84233e-05 10.7723 0.223806 10.9962 0.499949 10.9962L3.8909 10.9966L3.00987 15.402C2.95571 15.6728 3.13132 15.9362 3.4021 15.9903C3.67289 16.0445 3.9363 15.8689 3.99045 15.5981L4.91068 10.9967L9.91426 10.9972L9.0102 15.3995C8.95465 15.67 9.1289 15.9343 9.3994 15.9899C9.66989 16.0454 9.93421 15.8712 9.98976 15.6007L10.9351 10.9973L14.5025 10.9977C14.7786 10.9977 15.0025 10.7739 15.0025 10.4977C15.0026 10.2216 14.7787 9.99769 14.5026 9.99766L11.1405 9.99731L11.9604 6.00451L15.4999 6.00488C15.7761 6.00491 16 5.78108 16 5.50493C16 5.22879 15.7762 5.00491 15.5001 5.00488L12.1658 5.00453L13.0674 0.613986C13.123 0.343488 12.9487 0.0791752 12.6782 0.0236258C12.4077 -0.0319236 12.1434 0.142326 12.0879 0.412824L11.1449 5.00443L6.10917 5.0039L6.99027 0.598149ZM5.90918 6.00388L10.9396 6.00441L10.1196 9.99721L5.11067 9.99669L5.90918 6.00388Z" fill="#242424"/>
</svg>
