<svg width="14" height="12" viewBox="0 0 14 12" fill="none" xmlns="http://www.w3.org/2000/svg">
<path d="M1 2.5C1.55228 2.5 2 2.05228 2 1.5C2 0.947715 1.55228 0.5 1 0.5C0.447715 0.5 0 0.947715 0 1.5C0 2.05228 0.447715 2.5 1 2.5ZM1 7C1.55228 7 2 6.55228 2 6C2 5.44772 1.55228 5 1 5C0.447715 5 0 5.44772 0 6C0 6.55228 0.447715 7 1 7ZM2 10.5C2 11.0523 1.55228 11.5 1 11.5C0.447715 11.5 0 11.0523 0 10.5C0 9.94772 0.447715 9.5 1 9.5C1.55228 9.5 2 9.94772 2 10.5ZM4.5 1C4.22386 1 4 1.22386 4 1.5C4 1.77614 4.22386 2 4.5 2H13.5C13.7761 2 14 1.77614 14 1.5C14 1.22386 13.7761 1 13.5 1H4.5ZM4 6C4 5.72386 4.22386 5.5 4.5 5.5H13.5C13.7761 5.5 14 5.72386 14 6C14 6.27614 13.7761 6.5 13.5 6.5H4.5C4.22386 6.5 4 6.27614 4 6ZM4.5 10C4.22386 10 4 10.2239 4 10.5C4 10.7761 4.22386 11 4.5 11H13.5C13.7761 11 14 10.7761 14 10.5C14 10.2239 13.7761 10 13.5 10H4.5Z" fill="#242424"/>
</svg>
