<svg width="16" height="17" viewBox="0 0 16 17" fill="none" xmlns="http://www.w3.org/2000/svg">
<path d="M9.40039 0V4.5C9.40039 5.32843 10.072 6 10.9004 6H15.4004V14.5C15.4004 15.3284 14.7288 16 13.9004 16H9.14323C9.92857 15.0491 10.4004 13.8296 10.4004 12.5C10.4004 9.46243 7.93796 7 4.90039 7C4.38038 7 3.87722 7.07217 3.40039 7.20703V1.5C3.40039 0.671573 4.07196 0 4.90039 0H9.40039ZM10.4004 0.25V4.5C10.4004 4.77614 10.6242 5 10.9004 5H15.1504L10.4004 0.25ZM4.90039 17C7.38567 17 9.40039 14.9853 9.40039 12.5C9.40039 10.0147 7.38567 8 4.90039 8C2.41511 8 0.400391 10.0147 0.400391 12.5C0.400391 14.9853 2.41511 17 4.90039 17ZM2.54684 12.8536C2.35158 12.6583 2.35158 12.3417 2.54684 12.1464C2.7421 11.9512 3.05868 11.9512 3.25394 12.1464L4.40039 13.2929L4.40039 10.5C4.40039 10.2239 4.62425 10 4.90039 10C5.17653 10 5.40039 10.2239 5.40039 10.5V13.2929L6.54684 12.1464C6.7421 11.9512 7.05868 11.9512 7.25394 12.1464C7.44921 12.3417 7.44921 12.6583 7.25394 12.8536L5.25394 14.8536C5.20601 14.9015 5.15075 14.9377 5.09178 14.9621C5.0337 14.9861 4.97009 14.9996 4.90339 15L4.90039 15L4.89739 15C4.83069 14.9996 4.76708 14.9861 4.709 14.9621C4.6509 14.938 4.59641 14.9026 4.54896 14.8557L4.54644 14.8532L2.54684 12.8536Z" fill="#666666"/>
</svg>
