<svg width="16" height="17" viewBox="0 0 16 17" fill="none" xmlns="http://www.w3.org/2000/svg">
<path d="M5.7998 0C4.69524 0 3.7998 0.895431 3.7998 2V7.20703C4.12209 7.11588 4.45639 7.05337 4.7998 7.02242V2C4.7998 1.44772 5.24752 1 5.7998 1H9.7998V4.5C9.7998 5.32843 10.4714 6 11.2998 6H14.7998V14C14.7998 14.5523 14.3521 15 13.7998 15H10.2001C10.0172 15.3578 9.79627 15.6929 9.54264 16H13.7998C14.9044 16 15.7998 15.1046 15.7998 14V5.41421C15.7998 5.01639 15.6418 4.63486 15.3605 4.35355L11.4463 0.43934C11.1649 0.158035 10.7834 0 10.3856 0H5.7998ZM14.5927 5H11.2998C11.0237 5 10.7998 4.77614 10.7998 4.5V1.20711L14.5927 5ZM5.2998 17C7.78509 17 9.7998 14.9853 9.7998 12.5C9.7998 10.0147 7.78509 8 5.2998 8C2.81452 8 0.799805 10.0147 0.799805 12.5C0.799805 14.9853 2.81452 17 5.2998 17ZM2.94625 12.8536C2.75099 12.6583 2.75099 12.3417 2.94625 12.1464C3.14151 11.9512 3.4581 11.9512 3.65336 12.1464L4.7998 13.2929L4.7998 10.5C4.7998 10.2239 5.02366 10 5.2998 10C5.57595 10 5.7998 10.2239 5.7998 10.5V13.2929L6.94625 12.1464C7.14151 11.9512 7.4581 11.9512 7.65336 12.1464C7.84862 12.3417 7.84862 12.6583 7.65336 12.8536L5.65336 14.8536C5.60542 14.9015 5.55017 14.9377 5.4912 14.9621C5.43311 14.9861 5.36951 14.9996 5.3028 15L5.2998 15L5.29681 15C5.2301 14.9996 5.1665 14.9861 5.10841 14.9621C5.05031 14.938 4.99582 14.9026 4.94838 14.8557L4.94585 14.8532L2.94625 12.8536Z" fill="#525252"/>
</svg>
