<svg width="12" height="12" viewBox="0 0 12 12" fill="none" xmlns="http://www.w3.org/2000/svg">
<path id="Union" d="M11.4393 0.56066C10.6918 -0.186863 9.47979 -0.18689 8.73223 0.560598L1.33731 7.95484C1.15628 8.13586 1.01988 8.35655 0.938918 8.59943L0.0246954 11.3421C-0.0351938 11.5218 0.0115675 11.7198 0.145484 11.8538C0.2794 11.9877 0.477484 12.0344 0.657151 11.9746L3.39989 11.0603C3.64271 10.9794 3.86334 10.843 4.04433 10.662L9.99932 4.70759L10.2616 4.96987C10.5545 5.26276 10.5545 5.73763 10.2616 6.03053L9.14548 7.14664C8.95022 7.34191 8.95022 7.65849 9.14548 7.85375C9.34075 8.04901 9.65733 8.04901 9.85259 7.85375L10.9687 6.73763C11.6521 6.05422 11.6521 4.94618 10.9687 4.26276L10.7065 4.00052L11.4392 3.26783C12.1868 2.52029 12.1869 1.30823 11.4393 0.56066ZM9.66059 3.63214C9.65548 3.63685 9.65044 3.64168 9.64548 3.64664C9.64053 3.65159 9.63571 3.65662 9.63101 3.66172L3.33726 9.9549C3.26604 10.0261 3.17921 10.0798 3.08367 10.1116L1.28961 10.7096L1.8876 8.91566C1.91946 8.82007 1.97314 8.73322 2.04439 8.66198L9.43931 1.26774C9.79634 0.910743 10.3752 0.910756 10.7322 1.26777C11.0892 1.6248 11.0892 2.20367 10.7321 2.56069L9.66059 3.63214Z" fill="#FAAD14"/>
</svg>
