<svg width="20" height="20" viewBox="0 0 20 20" fill="none" xmlns="http://www.w3.org/2000/svg">
<path d="M16.8225 9.12778C17.7843 8.47136 18.466 7.51132 18.7894 6.43605C18.8886 6.57192 18.9827 6.71297 19.0713 6.85944C19.6755 7.85764 20 9.06254 20 10.4996C20 12.7055 19.1671 14.2487 18.3194 15.2377C17.899 15.7282 17.4777 16.0797 17.1579 16.3107C17.1021 16.351 17.0493 16.3877 17 16.4209V18.2496C17 19.2161 16.2165 19.9996 15.25 19.9996H14C13.1716 19.9996 12.5 19.328 12.5 18.4996H10.5C10.5 19.328 9.82843 19.9996 9 19.9996H7.75C6.7835 19.9996 6 19.2161 6 18.2496V17.567C5.86194 17.5204 5.7053 17.4627 5.53573 17.3917C4.93965 17.1422 4.15955 16.7198 3.46967 16.0299C2.68564 15.2459 2.16052 14.4278 1.8651 13.8989C1.77791 13.7429 1.64768 13.6595 1.53621 13.6409C0.64973 13.4932 0 12.7262 0 11.8275V10.0746C0 9.23188 0.609255 8.51268 1.44051 8.37414C1.52742 8.35965 1.6555 8.27334 1.71651 8.09057C1.90886 7.51435 2.28209 6.65682 2.96967 5.96923C3.53209 5.40682 4.15488 4.99368 4.6279 4.72338C4.76427 4.64545 4.88983 4.57848 5 4.52239V1.67072C5 0.732822 6.13062 0.347839 6.73986 0.954501C7.07031 1.28356 7.55006 1.72239 8.08112 2.08886C8.61115 2.45463 9.11767 2.69566 9.53524 2.7488C9.05075 3.71125 8.87787 4.82522 9.08535 5.92372C9.26622 6.88136 9.99903 7.48644 10.6874 7.77152L14.3831 9.30194C15.0715 9.58702 16.0175 9.67717 16.8225 9.12778ZM6 8.99955C6.55228 8.99955 7 8.55183 7 7.99955C7 7.44726 6.55228 6.99955 6 6.99955C5.44772 6.99955 5 7.44726 5 7.99955C5 8.55183 5.44772 8.99955 6 8.99955ZM16.2588 8.30182C17.211 7.65187 17.8199 6.6294 17.9666 5.52086C17.9666 5.52085 17.9666 5.52087 17.9666 5.52086C18.0558 4.84711 17.9742 4.14153 17.6954 3.4685C16.8498 1.42759 14.5099 0.458585 12.4689 1.30416C10.6886 2.04179 9.72391 3.9166 10.0679 5.73807C10.0926 5.8684 10.1369 5.99023 10.1972 6.10283C10.2471 6.19607 10.3079 6.28299 10.3776 6.36317C10.5604 6.57345 10.8039 6.73741 11.07 6.84761L14.7657 8.37803C15.2558 8.58097 15.8206 8.60084 16.2588 8.30182Z" fill="#525252"/>
</svg>
