<svg width="12" height="18" viewBox="0 0 12 18" fill="none" xmlns="http://www.w3.org/2000/svg">
<path d="M5.64645 0.403771C5.84171 0.208509 6.15829 0.208509 6.35355 0.403771L8.47487 2.52509C8.67014 2.72035 8.67014 3.03694 8.47487 3.2322C8.27961 3.42746 7.96303 3.42746 7.76777 3.2322L6.5 1.96443V6.49996C6.5 6.7761 6.27614 6.99996 6 6.99996C5.72386 6.99996 5.5 6.7761 5.5 6.49996V1.96443L4.23223 3.2322C4.03697 3.42746 3.72039 3.42746 3.52513 3.2322C3.32986 3.03694 3.32986 2.72035 3.52513 2.52509L5.64645 0.403771ZM0 8.99996C0 8.72381 0.223858 8.49996 0.5 8.49996H11.5C11.7761 8.49996 12 8.72381 12 8.99996C12 9.2761 11.7761 9.49996 11.5 9.49996H0.5C0.223858 9.49996 0 9.2761 0 8.99996ZM6.5 16.0355L6.5 11.5C6.5 11.2238 6.27614 11 6 11C5.72386 11 5.5 11.2238 5.5 11.5L5.5 16.0355L4.23223 14.7677C4.03697 14.5724 3.72039 14.5724 3.52513 14.7677C3.32986 14.963 3.32986 15.2796 3.52513 15.4748L5.64645 17.5961C5.84171 17.7914 6.15829 17.7914 6.35355 17.5961L8.47487 15.4748C8.67014 15.2796 8.67014 14.963 8.47487 14.7677C8.27961 14.5724 7.96303 14.5724 7.76777 14.7677L6.5 16.0355Z" fill="#242424"/>
</svg>
