<svg width="13" height="12" viewBox="0 0 13 12" fill="none" xmlns="http://www.w3.org/2000/svg">
<path d="M11.9403 0.56066C11.1927 -0.186863 9.98077 -0.18689 9.23321 0.560598L1.83829 7.95484C1.65725 8.13586 1.52085 8.35655 1.43989 8.59943L0.525672 11.3421C0.465783 11.5218 0.512544 11.7198 0.64646 11.8538C0.780376 11.9877 0.97846 12.0344 1.15813 11.9746L3.90087 11.0603C4.14368 10.9794 4.36432 10.843 4.54531 10.662L11.9402 3.26783C12.6878 2.52029 12.6878 1.30823 11.9403 0.56066ZM9.94029 1.26774C10.2973 0.910743 10.8761 0.910756 11.2331 1.26777C11.5902 1.6248 11.5902 2.20367 11.2331 2.56069L10.4994 3.29437L9.20648 2.00148L9.94029 1.26774ZM8.49934 2.70855L9.79223 4.00145L3.83823 9.9549C3.76701 10.0261 3.68019 10.0798 3.58464 10.1116L1.79058 10.7096L2.38858 8.91566C2.42044 8.82007 2.47412 8.73322 2.54536 8.66198L8.49934 2.70855Z" fill="#525252"/>
</svg>
