<svg width="14" height="14" viewBox="0 0 14 14" fill="none" xmlns="http://www.w3.org/2000/svg">
<path d="M5.39814 4.47559C5.39814 3.59193 6.11449 2.87559 6.99814 2.87559C7.8818 2.87559 8.59814 3.59193 8.59814 4.47559C8.59814 5.35924 7.8818 6.07559 6.99814 6.07559C6.11449 6.07559 5.39814 5.35924 5.39814 4.47559ZM4.99813 6.87559L8.99814 6.87559C9.66089 6.87559 10.1981 7.41284 10.1981 8.07559C10.1981 8.96845 9.83097 9.6838 9.22843 10.1674C8.63541 10.6434 7.8406 10.8756 6.99814 10.8756C6.15568 10.8756 5.36088 10.6434 4.76786 10.1674C4.16532 9.6838 3.79814 8.96845 3.79814 8.07559C3.79814 7.41287 4.33539 6.87559 4.99813 6.87559ZM8.1496 1.21992C7.70302 0.232032 6.3001 0.232032 5.85352 1.21992C5.73392 1.48449 5.40211 1.57339 5.16625 1.40407C4.28556 0.771828 3.07059 1.47329 3.17779 2.55211C3.20649 2.84103 2.96359 3.08394 2.67467 3.05523C1.59585 2.94804 0.894386 4.163 1.52663 5.04369C1.69595 5.27955 1.60704 5.61136 1.34248 5.73096C0.354591 6.17754 0.35459 7.58046 1.34248 8.02704C1.60704 8.14664 1.69595 8.47845 1.52663 8.71431C0.894386 9.59501 1.59584 10.81 2.67467 10.7028C2.96359 10.6741 3.20649 10.917 3.17779 11.2059C3.07059 12.2847 4.28556 12.9862 5.16625 12.3539C5.40211 12.1846 5.73392 12.2735 5.85352 12.5381C6.3001 13.526 7.70302 13.526 8.1496 12.5381C8.2692 12.2735 8.60101 12.1846 8.83687 12.3539C9.71757 12.9862 10.9325 12.2847 10.8253 11.2059C10.7966 10.917 11.0395 10.6741 11.3285 10.7028C12.4073 10.81 13.1087 9.59501 12.4765 8.71431C12.3072 8.47845 12.3961 8.14664 12.6606 8.02704C13.6485 7.58046 13.6485 6.17754 12.6606 5.73096C12.3961 5.61136 12.3072 5.27955 12.4765 5.04369C13.1087 4.163 12.4073 2.94804 11.3285 3.05523C11.0395 3.08394 10.7966 2.84103 10.8253 2.55211C10.9325 1.47329 9.71756 0.771828 8.83687 1.40407C8.60101 1.57339 8.2692 1.48449 8.1496 1.21992ZM6.5825 1.54946C6.74551 1.18885 7.25761 1.18885 7.42063 1.54946C7.74827 2.27424 8.65727 2.51781 9.30341 2.05395C9.62489 1.82316 10.0684 2.07921 10.0293 2.47302C9.95061 3.26452 10.616 3.92995 11.4075 3.85131C11.8014 3.81218 12.0574 4.25568 11.8266 4.57715C11.3628 5.22329 11.6063 6.13229 12.3311 6.45994C12.6917 6.62295 12.6917 7.13506 12.3311 7.29807C11.6063 7.62571 11.3628 8.53471 11.8266 9.18085C12.0574 9.50233 11.8014 9.94583 11.4075 9.9067C10.616 9.82805 9.95061 10.4935 10.0293 11.285C10.0684 11.6788 9.62489 11.9348 9.30341 11.7041C8.65727 11.2402 7.74827 11.4838 7.42063 12.2085C7.25761 12.5692 6.74551 12.5692 6.5825 12.2085C6.25485 11.4838 5.34585 11.2402 4.69971 11.7041C4.37823 11.9348 3.93474 11.6788 3.97387 11.285C4.05251 10.4935 3.38708 9.82805 2.59557 9.9067C2.20177 9.94583 1.94572 9.50233 2.17651 9.18085C2.64037 8.53471 2.3968 7.62571 1.67202 7.29807C1.31141 7.13506 1.31141 6.62295 1.67202 6.45994C2.3968 6.13229 2.64037 5.22329 2.17651 4.57715C1.94572 4.25567 2.20177 3.81218 2.59557 3.85131C3.38708 3.92995 4.05251 3.26452 3.97387 2.47302C3.93474 2.07921 4.37823 1.82316 4.69971 2.05395C5.34585 2.51781 6.25485 2.27424 6.5825 1.54946Z" fill="#525252"/>
</svg>
