<svg width="21" height="21" viewBox="0 0 21 21" fill="none" xmlns="http://www.w3.org/2000/svg">
<path d="M10.0223 11.9993C9.37517 13.0098 9 14.2111 9 15.5C9 17.1303 9.60022 18.6205 10.5917 19.7615C9.7962 19.9216 8.93132 20.0011 8 20.0011C4.57903 20.0011 2.05607 18.9289 0.513908 16.7646C0.181945 16.2987 0.00354004 15.7409 0.00354004 15.1688V14.2488C0.00354004 13.0068 1.0104 11.9999 2.25242 11.9999L10.0223 11.9993ZM15.5 10C18.5376 10 21 12.4624 21 15.5C21 18.5376 18.5376 21 15.5 21C12.4624 21 10 18.5376 10 15.5C10 12.4624 12.4624 10 15.5 10ZM15.5 17.751C15.1551 17.751 14.8755 18.0306 14.8755 18.3755C14.8755 18.7204 15.1551 19 15.5 19C15.8449 19 16.1245 18.7204 16.1245 18.3755C16.1245 18.0306 15.8449 17.751 15.5 17.751ZM15.5 11.8741C14.4521 11.8741 13.6357 12.6915 13.6467 13.8284C13.6493 14.1045 13.8753 14.3262 14.1514 14.3236C14.4276 14.3209 14.6493 14.0949 14.6466 13.8188C14.6411 13.2398 15.0063 12.8741 15.5 12.8741C15.9724 12.8741 16.3534 13.266 16.3534 13.8236C16.3534 14.0158 16.2981 14.1659 16.1295 14.3851L16.0355 14.501L15.9365 14.6142L15.6711 14.9043L15.5346 15.0615C15.1513 15.5182 15 15.854 15 16.3716C15 16.6477 15.2239 16.8716 15.5 16.8716C15.7762 16.8716 16 16.6477 16 16.3716C16 16.1684 16.0585 16.0126 16.2389 15.7813L16.3238 15.6772L16.4247 15.5618L16.6905 15.2713L16.8251 15.1162C17.2034 14.6654 17.3534 14.333 17.3534 13.8236C17.3534 12.7199 16.5311 11.8741 15.5 11.8741ZM8 0.00463867C10.7614 0.00463867 13 2.24321 13 5.00464C13 7.76606 10.7614 10.0046 8 10.0046C5.23857 10.0046 3 7.76606 3 5.00464C3 2.24321 5.23857 0.00463867 8 0.00463867Z" fill="#5360ED"/>
</svg>
