<svg width="14" height="14" viewBox="0 0 14 14" fill="none" xmlns="http://www.w3.org/2000/svg">
<path d="M2.5 3C2.22386 3 2 3.22386 2 3.5C2 3.77614 2.22386 4 2.5 4H9.5C9.77614 4 10 3.77614 10 3.5C10 3.22386 9.77614 3 9.5 3H2.5Z" fill="#525252"/>
<path d="M3.5 9C4.32843 9 5 8.32843 5 7.5C5 6.67157 4.32843 6 3.5 6C2.67157 6 2 6.67157 2 7.5C2 8.32843 2.67157 9 3.5 9ZM3.5 8C3.22386 8 3 7.77614 3 7.5C3 7.22386 3.22386 7 3.5 7C3.77614 7 4 7.22386 4 7.5C4 7.77614 3.77614 8 3.5 8Z" fill="#525252"/>
<path d="M6.5 7C6.22386 7 6 7.22386 6 7.5C6 7.77614 6.22386 8 6.5 8H9.5C9.77614 8 10 7.77614 10 7.5C10 7.22386 9.77614 7 9.5 7H6.5Z" fill="#525252"/>
<path d="M0 3C0 1.34315 1.34315 0 3 0H9C10.6569 0 12 1.34315 12 3V9C12 10.6569 10.6569 12 9 12H3C1.34315 12 0 10.6569 0 9V3ZM3 1C1.89543 1 1 1.89543 1 3V9C1 9.3709 1.10096 9.71822 1.27691 10.016C1.44899 10.3072 1.69279 10.551 1.98401 10.7231C2.28177 10.899 2.62909 11 3 11H9C9.37089 11 9.71821 10.899 10.016 10.7231C10.3072 10.551 10.551 10.3072 10.7231 10.016C10.899 9.71825 11 9.37091 11 9V3C11 1.89543 10.1046 1 9 1H3Z" fill="#525252"/>
<path d="M5.00002 14C4.11152 14 3.31324 13.6138 2.76392 13H9.50002C11.3122 13 12.8027 11.6228 12.982 9.85788C12.9939 9.74022 13 9.62083 13 9.50002V2.76392C13.6138 3.31324 14 4.11152 14 5.00002V9.50002C14 11.9853 11.9853 14 9.50002 14H5.00002Z" fill="#525252"/>
</svg>
