<svg width="16" height="12" viewBox="0 0 16 12" fill="none" xmlns="http://www.w3.org/2000/svg">
<path d="M0 3C0 1.34315 1.34315 0 3 0H13C14.6569 0 16 1.34315 16 3V9C16 10.6569 14.6569 12 13 12H3C1.34315 12 0 10.6569 0 9V3ZM3 1C1.89543 1 1 1.89543 1 3V9C1 10.1046 1.89543 11 3 11H13C14.1046 11 15 10.1046 15 9V3C15 1.89543 14.1046 1 13 1H3ZM2 3C2 2.44772 2.44772 2 3 2H13C13.5523 2 14 2.44772 14 3V5C14 5.55228 13.5523 6 13 6H3C2.44772 6 2 5.55229 2 5V3ZM13 3H3V5H13V3ZM10 7C9.44772 7 9 7.44772 9 8V9C9 9.55228 9.44772 10 10 10H13C13.5523 10 14 9.55228 14 9V8C14 7.44772 13.5523 7 13 7H10ZM10 8H13V9H10V8ZM2 7.5C2 7.22386 2.22386 7 2.5 7H7.5C7.77614 7 8 7.22386 8 7.5C8 7.77614 7.77614 8 7.5 8H2.5C2.22386 8 2 7.77614 2 7.5ZM2.5 9C2.22386 9 2 9.22386 2 9.5C2 9.77614 2.22386 10 2.5 10H7.5C7.77614 10 8 9.77614 8 9.5C8 9.22386 7.77614 9 7.5 9H2.5Z" fill="#242424"/>
</svg>
