<svg width="14" height="9" viewBox="0 0 14 9" fill="none" xmlns="http://www.w3.org/2000/svg">
<path d="M0 0.5C0 0.223858 0.223858 0 0.5 0H9.5C9.77614 0 10 0.223858 10 0.5C10 0.776142 9.77614 1 9.5 1H0.5C0.223858 1 0 0.776142 0 0.5ZM0 4.5C0 4.22386 0.223858 4 0.5 4H13.5C13.7761 4 14 4.22386 14 4.5C14 4.77614 13.7761 5 13.5 5H0.5C0.223858 5 0 4.77614 0 4.5ZM0 8.5C0 8.22386 0.223858 8 0.5 8H5.5C5.77614 8 6 8.22386 6 8.5C6 8.77614 5.77614 9 5.5 9H0.5C0.223858 9 0 8.77614 0 8.5Z" fill="#242424"/>
</svg>
