<svg width="14" height="14" viewBox="0 0 14 14" fill="none" xmlns="http://www.w3.org/2000/svg">
<path d="M2.35355 0.646447C2.54882 0.841709 2.54882 1.15829 2.35355 1.35355L1.70711 2H4.5C4.77614 2 5 2.22386 5 2.5C5 2.77614 4.77614 3 4.5 3H1.70711L2.35355 3.64645C2.54882 3.84171 2.54882 4.15829 2.35355 4.35355C2.15829 4.54882 1.84171 4.54882 1.64645 4.35355L0.146447 2.85355C-0.0488155 2.65829 -0.0488155 2.34171 0.146447 2.14645L1.64645 0.646447C1.84171 0.451184 2.15829 0.451184 2.35355 0.646447ZM2.5 6C1.11929 6 3.72529e-08 7.11929 3.72529e-08 8.5V11.5C3.72529e-08 12.8807 1.11929 14 2.5 14H11.5C12.8807 14 14 12.8807 14 11.5V8.5C14 7.11929 12.8807 6 11.5 6H2.5ZM1 8.5C1 7.67157 1.67157 7 2.5 7H11.5C12.3284 7 13 7.67157 13 8.5V11.5C13 12.3284 12.3284 13 11.5 13H2.5C1.67157 13 1 12.3284 1 11.5V8.5ZM3 9.5C2.72386 9.5 2.5 9.72386 2.5 10C2.5 10.2761 2.72386 10.5 3 10.5H11C11.2761 10.5 11.5 10.2761 11.5 10C11.5 9.72386 11.2761 9.5 11 9.5H3ZM11.6464 1.35355C11.4512 1.15829 11.4512 0.841709 11.6464 0.646447C11.8417 0.451184 12.1583 0.451184 12.3536 0.646447L13.8536 2.14645C14.0488 2.34171 14.0488 2.65829 13.8536 2.85355L12.3536 4.35355C12.1583 4.54882 11.8417 4.54882 11.6464 4.35355C11.4512 4.15829 11.4512 3.84171 11.6464 3.64645L12.2929 3H9.5C9.22386 3 9 2.77614 9 2.5C9 2.22386 9.22386 2 9.5 2H12.2929L11.6464 1.35355Z" fill="#242424"/>
</svg>
