<svg width="14" height="14" viewBox="0 0 14 14" fill="none" xmlns="http://www.w3.org/2000/svg">
<path id="Union" d="M11.4403 0.56066C10.6927 -0.186863 9.48077 -0.18689 8.73321 0.560598L1.33829 7.95484C1.15725 8.13586 1.02085 8.35655 0.939894 8.59943L0.0256719 11.3421C-0.0342172 11.5218 0.0125441 11.7198 0.14646 11.8538C0.280376 11.9877 0.47846 12.0344 0.658127 11.9746L3.40087 11.0603C3.64368 10.9794 3.86432 10.843 4.04531 10.662L4.10955 10.5978C4.03772 10.2431 4.00001 9.87606 4.00001 9.5002C4.00001 9.42955 4.00135 9.35921 4.00399 9.28921L3.33823 9.9549C3.26701 10.0261 3.18019 10.0798 3.08464 10.1116L1.29058 10.7096L1.88858 8.91566C1.92044 8.82007 1.97412 8.73322 2.04536 8.66198L9.44029 1.26774C9.79731 0.910743 10.3761 0.910756 10.7331 1.26777C11.0902 1.6248 11.0902 2.20367 10.7331 2.56069L9.28953 4.00415C9.35936 4.00152 9.42953 4.0002 9.50001 4.0002C9.87605 4.0002 10.2433 4.03794 10.5981 4.10983L11.4402 3.26783C12.1878 2.52029 12.1878 1.30823 11.4403 0.56066ZM14 9.50018C14 11.9855 11.9853 14.0002 9.5 14.0002C7.01472 14.0002 5 11.9855 5 9.50018C5 7.0149 7.01472 5.00018 9.5 5.00018C11.9853 5.00018 14 7.0149 14 9.50018ZM11.3536 8.35374C11.5488 8.15847 11.5488 7.84189 11.3536 7.64663C11.1583 7.45137 10.8417 7.45137 10.6464 7.64663L9.5 8.79308L8.35355 7.64663C8.15829 7.45137 7.84171 7.45137 7.64645 7.64663C7.45118 7.84189 7.45118 8.15847 7.64645 8.35374L8.79289 9.50018L7.64645 10.6466C7.45118 10.8419 7.45118 11.1585 7.64645 11.3537C7.84171 11.549 8.15829 11.549 8.35355 11.3537L9.5 10.2073L10.6464 11.3537C10.8417 11.549 11.1583 11.549 11.3536 11.3537C11.5488 11.1585 11.5488 10.8419 11.3536 10.6466L10.2071 9.50018L11.3536 8.35374Z" fill="#F5222D"/>
</svg>
