<svg width="16" height="17" viewBox="0 0 16 17" fill="none" xmlns="http://www.w3.org/2000/svg">
<path d="M12.0862 5.70308C12.9261 4.85998 14.2655 4.81735 15.1558 5.57701L15.2859 5.69697L15.4124 5.83357C16.1367 6.68212 16.1367 7.93671 15.4124 8.78526L15.292 8.91574L8.41576 15.8183C8.26074 15.9739 8.07393 16.0931 7.86891 16.1682L7.71194 16.2161L4.6264 16.9764C4.28729 17.0599 3.97926 16.7813 4.00819 16.4498L4.02262 16.366L4.81461 13.2953C4.86797 13.0883 4.96477 12.8958 5.09787 12.7302L5.20439 12.6112L12.0862 5.70308ZM4.42321 1.22879L4.46509 1.31323L7.44702 8.94224L6.67502 9.71724L6.00302 7.99824H2.00602L0.965167 10.678C0.876208 10.9068 0.637372 11.0329 0.404636 10.9879L0.317951 10.9628C0.0891781 10.8738 -0.0369899 10.635 0.00808497 10.4023L0.0331492 10.3156L3.53339 1.31403C3.68672 0.919701 4.21564 0.891088 4.42321 1.22879ZM3.99963 2.871L2.39502 6.99824H5.61302L3.99963 2.871Z" fill="#525252"/>
</svg>
