<svg width="14" height="14" viewBox="0 0 14 14" fill="none" xmlns="http://www.w3.org/2000/svg">
<path d="M2.85355 -0.353553C3.04882 -0.158291 3.04882 0.158291 2.85355 0.353553L1.20711 2H8C11.3137 2 14 4.68629 14 8C14 11.3137 11.3137 14 8 14C4.68629 14 2 11.3137 2 8C2 7.72386 2.22386 7.5 2.5 7.5C2.77614 7.5 3 7.72386 3 8C3 10.7614 5.23858 13 8 13C10.7614 13 13 10.7614 13 8C13 5.23858 10.7614 3 8 3H1.20711L2.85355 4.64645C3.04882 4.84171 3.04882 5.15829 2.85355 5.35355C2.65829 5.54882 2.34171 5.54882 2.14645 5.35355L-0.353553 2.85355C-0.548816 2.65829 -0.548816 2.34171 -0.353553 2.14645L2.14645 -0.353553C2.34171 -0.548816 2.65829 -0.548816 2.85355 -0.353553Z" fill="#525252"/>
</svg>
