<svg width="12" height="8" viewBox="0 0 12 8" fill="none" xmlns="http://www.w3.org/2000/svg">
<path d="M0.984442 4.62519L0.983464 4.62864C0.912505 4.89529 0.638789 5.05453 0.372018 4.98379C-0.0590217 4.86955 0.0168651 4.37235 0.0168651 4.37235L0.0345297 4.31096C0.0345297 4.31096 0.0606335 4.22685 0.0816627 4.16579C0.123686 4.04378 0.187952 3.87322 0.279309 3.67026C0.461538 3.26542 0.754431 2.72526 1.19877 2.18343C2.09629 1.08899 3.60509 0.000488281 6.00017 0.000488281C8.39524 0.000488281 9.90404 1.08899 10.8016 2.18343C11.2459 2.72526 11.5388 3.26542 11.721 3.67026C11.8124 3.87322 11.8766 4.04378 11.9187 4.16579C11.9397 4.22685 11.9552 4.2759 11.9658 4.31096C11.9711 4.32849 11.9752 4.34253 11.9781 4.35284L11.9816 4.36548L11.9827 4.36965L11.9832 4.37118L11.9835 4.37235C12.0542 4.63927 11.8952 4.91302 11.6283 4.98379C11.3618 5.05446 11.0885 4.89604 11.0172 4.62986L11.0169 4.62864L11.0159 4.62519L11.0085 4.60019C11.0014 4.57665 10.9898 4.53976 10.9732 4.49144C10.9399 4.3947 10.8866 4.25276 10.8091 4.08072C10.6538 3.73556 10.4041 3.27572 10.0283 2.81755C9.28569 1.91199 8.0445 1.00049 6.00017 1.00049C3.95584 1.00049 2.71464 1.91199 1.97201 2.81755C1.59627 3.27572 1.34655 3.73556 1.19119 4.08072C1.11375 4.25276 1.06047 4.3947 1.02715 4.49144C1.01051 4.53976 0.998902 4.57665 0.991789 4.60019L0.984442 4.62519ZM6.00024 3.00049C4.61953 3.00049 3.50024 4.11978 3.50024 5.50049C3.50024 6.8812 4.61953 8.00049 6.00024 8.00049C7.38096 8.00049 8.50024 6.8812 8.50024 5.50049C8.50024 4.11978 7.38096 3.00049 6.00024 3.00049ZM4.50024 5.50049C4.50024 4.67206 5.17182 4.00049 6.00024 4.00049C6.82867 4.00049 7.50024 4.67206 7.50024 5.50049C7.50024 6.32892 6.82867 7.00049 6.00024 7.00049C5.17182 7.00049 4.50024 6.32892 4.50024 5.50049Z" fill="#5360ED"/>
</svg>
