<svg width="12" height="12" viewBox="0 0 12 12" fill="none" xmlns="http://www.w3.org/2000/svg">
<path d="M1 6C1 3.23858 3.23858 1 6 1C7.63508 1 9.087 1.7844 10 2.99946L7.5 3C7.22386 3 7 3.22386 7 3.5C7 3.77614 7.22386 4 7.5 4H10.5C10.7761 4 11 3.77614 11 3.5V2.84295C11.0001 2.83864 11.0001 2.83434 11 2.83003V0.5C11 0.223858 10.7761 0 10.5 0C10.2239 0 10 0.223858 10 0.5V1.52786C8.93882 0.578151 7.53694 0 6 0C2.68629 0 0 2.68629 0 6C0 9.31371 2.68629 12 6 12C9.31371 12 12 9.31371 12 6C12 5.72386 11.7761 5.5 11.5 5.5C11.2239 5.5 11 5.72386 11 6C11 8.76142 8.76142 11 6 11C3.23858 11 1 8.76142 1 6Z" fill="#525252"/>
</svg>
