<svg width="12" height="14" viewBox="0 0 12 14" fill="none" xmlns="http://www.w3.org/2000/svg">
<path d="M2 0C2.27614 0 2.5 0.223858 2.5 0.5V1H4.5V0.5C4.5 0.223858 4.72386 0 5 0C5.27614 0 5.5 0.223858 5.5 0.5V1H7.5V0.5C7.5 0.223858 7.72386 0 8 0C8.27614 0 8.5 0.223858 8.5 0.5V1C9.32843 1 10 1.67157 10 2.5V5.03605C9.49853 5.12336 9.01807 5.36065 8.6308 5.74792L7.2877 7.09102C7.20634 7.03368 7.1071 7 7 7H3C2.72386 7 2.5 7.22386 2.5 7.5C2.5 7.77614 2.72386 8 3 8H6.37872L4.34242 10.0363C4.21728 10.1614 4.10154 10.2948 3.99583 10.4352C3.96404 10.1896 3.75417 10 3.5 10H3C2.72386 10 2.5 10.2239 2.5 10.5C2.5 10.7761 2.72386 11 3 11H3.5C3.55475 11 3.60744 10.9912 3.65673 10.9749C3.52354 11.233 3.41996 11.5068 3.34889 11.7911L3.0461 13.0022C2.95763 13.3561 2.99196 13.7 3.11523 14H1.5C0.671573 14 0 13.3284 0 12.5V2.5C0 1.67157 0.671573 1 1.5 1V0.5C1.5 0.223858 1.72386 0 2 0ZM2.5 4.5C2.5 4.77614 2.72386 5 3 5H7C7.27614 5 7.5 4.77614 7.5 4.5C7.5 4.22386 7.27614 4 7 4H3C2.72386 4 2.5 4.22386 2.5 4.5ZM9.33748 6.45503C9.94696 5.84556 10.9351 5.84556 11.5446 6.45503C12.1541 7.06451 12.1541 8.05266 11.5446 8.66214L7.25621 12.9505C6.90029 13.3064 6.45434 13.5589 5.96602 13.681L4.75486 13.9838C4.30853 14.0954 3.90424 13.6911 4.01582 13.2448L4.31861 12.0336C4.44069 11.5453 4.69319 11.0993 5.04911 10.7434L9.33748 6.45503Z" fill="#5360ED"/>
</svg>
