<svg width="14" height="14" viewBox="0 0 14 14" fill="none" xmlns="http://www.w3.org/2000/svg">
<path d="M13.8232 0.118496C13.6705 -0.0108545 13.4554 -0.0367025 13.2764 0.0527924L0.276392 6.55279C0.107001 6.63748 0 6.81061 0 7C0 7.18939 0.107001 7.36252 0.276392 7.44721L13.2764 13.9472C13.4554 14.0367 13.6705 14.0109 13.8232 13.8815C13.9759 13.7522 14.0367 13.5442 13.9779 13.353L12.0231 7L13.9779 0.647048C14.0367 0.455781 13.9759 0.247847 13.8232 0.118496ZM11.1307 7.5L12.6785 12.5302L1.61803 7L12.6785 1.46979L11.1307 6.5H5.49999C5.22385 6.5 4.99999 6.72386 4.99999 7C4.99999 7.27614 5.22385 7.5 5.49999 7.5H11.1307Z" fill="#EEF0FF"/>
</svg>
