<svg width="16" height="14" viewBox="0 0 16 14" fill="none" xmlns="http://www.w3.org/2000/svg">
<path d="M10.1774 2.70757V0.577825C10.1774 0.0980531 10.7076 -0.160361 11.0678 0.108643L11.1295 0.161651L15.6266 4.58283C15.8365 4.78916 15.8556 5.12058 15.6839 5.34968L15.6267 5.41512L11.1296 9.83772C10.7918 10.1699 10.2427 9.95663 10.1827 9.50392L10.1774 9.42161V7.32611L9.91969 7.34926C8.11945 7.54174 6.39397 8.37283 4.73241 9.85643C4.34298 10.2042 3.74047 9.87538 3.80452 9.3501C4.30325 5.25989 6.3902 3.00547 9.9528 2.72268L10.1774 2.70757ZM3.2998 1C1.91909 1 0.799805 2.11929 0.799805 3.5V11.5C0.799805 12.8807 1.91909 14 3.2998 14H11.2998C12.6805 14 13.7998 12.8807 13.7998 11.5V10.5C13.7998 10.2239 13.5759 10 13.2998 10C13.0237 10 12.7998 10.2239 12.7998 10.5V11.5C12.7998 12.3284 12.1282 13 11.2998 13H3.2998C2.47138 13 1.7998 12.3284 1.7998 11.5V3.5C1.7998 2.67157 2.47138 2 3.2998 2H6.2998C6.57595 2 6.7998 1.77614 6.7998 1.5C6.7998 1.22386 6.57595 1 6.2998 1H3.2998Z" fill="#525252"/>
</svg>
