<svg width="18" height="30" viewBox="0 0 18 30" fill="none" xmlns="http://www.w3.org/2000/svg">
<g id="Shifts Question Mark">
<path id="Shape" d="M5 8C3.34315 8 2 9.34315 2 11V14.5997C2.75007 14.2163 3.59978 14 4.5 14C7.53757 14 10 16.4624 10 19.5C10 20.4002 9.78372 21.2499 9.40029 22H13C14.6569 22 16 20.6569 16 19V11C16 9.34315 14.6569 8 13 8H5ZM9.5 11C9.77614 11 10 11.2239 10 11.5V14H12C12.2761 14 12.5 14.2239 12.5 14.5C12.5 14.7761 12.2761 15 12 15H9.5C9.22386 15 9 14.7761 9 14.5V11.5C9 11.2239 9.22386 11 9.5 11ZM9 19.5C9 21.9853 6.98528 24 4.5 24C2.01472 24 0 21.9853 0 19.5C0 17.0147 2.01472 15 4.5 15C6.98528 15 9 17.0147 9 19.5ZM4.49993 21.3804C4.15502 21.3804 3.87542 21.66 3.87542 22.0049C3.87542 22.3498 4.15502 22.6294 4.49993 22.6294C4.84484 22.6294 5.12444 22.3498 5.12444 22.0049C5.12444 21.66 4.84484 21.3804 4.49993 21.3804ZM4.49997 16.5034C3.45202 16.5034 2.63568 17.3208 2.64659 18.4577C2.64924 18.7339 2.87524 18.9556 3.15137 18.9529C3.4275 18.9503 3.6492 18.7243 3.64655 18.4481C3.64099 17.8691 4.0062 17.5034 4.49997 17.5034C4.97235 17.5034 5.35337 17.8953 5.35337 18.4529C5.35337 18.6547 5.28218 18.7679 4.99369 18.9968L4.7157 19.2118C4.20993 19.6161 3.99995 19.9294 3.99993 20.5003C3.99992 20.7764 4.22376 21.0003 4.49991 21.0003C4.74537 21.0003 4.94952 20.8234 4.99187 20.5902L5.0034 20.4341C5.02024 20.2863 5.10295 20.1804 5.34869 19.9858L5.62574 19.7715C6.13905 19.3607 6.35337 19.0387 6.35337 18.4529C6.35337 17.3492 5.53102 16.5034 4.49997 16.5034Z" fill="#525252"/>
</g>
</svg>
