<svg width="10" height="10" viewBox="0 0 10 10" fill="none" xmlns="http://www.w3.org/2000/svg">
<path d="M9.14645 4.14645C9.34171 3.95119 9.65829 3.95119 9.85355 4.14645C10.0488 4.34171 10.0488 4.65829 9.85355 4.85355L5.35355 9.35355C5.15829 9.54882 4.84171 9.54882 4.64645 9.35355L0.146446 4.85355C-0.0488155 4.65829 -0.0488155 4.34171 0.146446 4.14645C0.341708 3.95118 0.658291 3.95118 0.853553 4.14645L5 8.29289L9.14645 4.14645ZM9.14645 0.146447C9.34171 -0.0488147 9.65829 -0.0488147 9.85355 0.146447C10.0488 0.34171 10.0488 0.658292 9.85355 0.853555L5.35355 5.35355C5.15829 5.54882 4.84171 5.54882 4.64645 5.35355L0.146447 0.853554C-0.0488152 0.658291 -0.0488151 0.341709 0.146447 0.146446C0.341709 -0.0488155 0.658291 -0.0488155 0.853553 0.146446L5 4.29289L9.14645 0.146447Z" fill="#242424"/>
</svg>
