<svg width="16" height="16" viewBox="0 0 16 16" fill="none" xmlns="http://www.w3.org/2000/svg">
<path d="M8 0C12.4183 0 16 3.58172 16 8C16 12.4183 12.4183 16 8 16C3.58172 16 0 12.4183 0 8C0 3.58172 3.58172 0 8 0ZM5.15467 10.4273C4.96002 10.2314 4.64344 10.2304 4.44757 10.4251C4.25169 10.6197 4.25069 10.9363 4.44533 11.1322C6.33704 13.0359 9.37792 13.103 11.3505 11.3265L11.5547 11.1322L11.6123 11.0627C11.7467 10.8674 11.7265 10.5981 11.5524 10.4251C11.3783 10.252 11.1088 10.2336 10.9144 10.3692L10.8453 10.4273L10.6671 10.5961C9.08775 12.0045 6.66416 11.9463 5.15467 10.4273ZM10.5 5.5C9.94772 5.5 9.5 5.94772 9.5 6.5C9.5 7.05228 9.94772 7.5 10.5 7.5C11.0523 7.5 11.5 7.05228 11.5 6.5C11.5 5.94772 11.0523 5.5 10.5 5.5ZM5.5 5.5C4.94772 5.5 4.5 5.94772 4.5 6.5C4.5 7.05228 4.94772 7.5 5.5 7.5C6.05228 7.5 6.5 7.05228 6.5 6.5C6.5 5.94772 6.05228 5.5 5.5 5.5Z" fill="#8F8F8F"/>
</svg>
