<svg width="14" height="20" viewBox="0 0 14 20" fill="none" xmlns="http://www.w3.org/2000/svg">
<path d="M0 7C0 3.13401 3.13401 0 7 0C10.866 0 14 3.13401 14 7V12C14 13.1046 13.1046 14 12 14H10C9.44772 14 9 13.5523 9 13V9C9 8.44772 9.44772 8 10 8H12.5V7C12.5 3.96243 10.0376 1.5 7 1.5C3.96243 1.5 1.5 3.96243 1.5 7V8H4C4.55228 8 5 8.44772 5 9V13C5 13.5523 4.55228 14 4 14H2C1.82734 14 1.6598 13.9781 1.49998 13.937L1.5 14.25C1.5 15.4409 2.42516 16.4156 3.59595 16.4948L3.75 16.5L4.87776 16.5008C5.18642 15.6265 6.02005 15 7 15C8.24264 15 9.25 16.0074 9.25 17.25C9.25 18.4926 8.24264 19.5 7 19.5C6.02043 19.5 5.18707 18.874 4.87812 18.0003L3.75 18C1.74574 18 0.108726 16.4276 0.005198 14.4492L0 14.25V7Z" fill="#525252"/>
</svg>
