<svg width="16" height="16" viewBox="0 0 16 16" fill="none" xmlns="http://www.w3.org/2000/svg">
<path d="M2.5 14H7V12C7 10.8954 7.89543 10 9 10C9.36429 10 9.70583 10.0974 10 10.2676V8C10 6.89543 10.8954 6 12 6C13.1046 6 14 6.89543 14 8V4H0V11.5C0 12.8807 1.11929 14 2.5 14ZM11.5 0C12.8807 0 14 1.11929 14 2.5V3H0V2.5C0 1.11929 1.11929 0 2.5 0H11.5ZM12 7C11.4477 7 11 7.44772 11 8V15C11 15.5523 11.4477 16 12 16C12.5523 16 13 15.5523 13 15V8C13 7.44772 12.5523 7 12 7ZM9 11C8.44771 11 8 11.4477 8 12V15C8 15.5523 8.44771 16 9 16C9.55228 16 10 15.5523 10 15V12C10 11.4477 9.55228 11 9 11ZM14 10C14 9.44772 14.4477 9 15 9C15.5523 9 16 9.44772 16 10V15C16 15.5523 15.5523 16 15 16C14.4477 16 14 15.5523 14 15V10Z" fill="#525252"/>
</svg>
