<svg width="17" height="15" viewBox="0 0 17 15" fill="none" xmlns="http://www.w3.org/2000/svg">
<path d="M8.24426 0.0119629C8.08681 0.0119629 7.94636 0.0847403 7.85471 0.198491L7.76531 0.264154C6.03947 -0.270165 4.07154 0.122505 2.70154 1.44217C1.48555 2.61348 1.0277 4.23853 1.328 5.75153C1.31091 5.76666 1.29407 5.78221 1.2775 5.79817L0.499168 6.5479C-0.137581 7.16125 -0.13758 8.15569 0.499169 8.76904C0.89675 9.15201 1.44857 9.29586 1.96202 9.20058C2.02468 9.48921 2.17232 9.76413 2.40493 9.9882C2.712 10.284 3.11107 10.4371 3.51341 10.4476C3.52426 10.8353 3.68325 11.2198 3.99038 11.5156C4.29745 11.8114 4.69652 11.9646 5.09887 11.9751C5.10974 12.3627 5.26873 12.7471 5.57583 13.043C6.17895 13.6239 7.13703 13.6546 7.77764 13.135L8.2149 13.5562C8.85493 14.1727 9.89263 14.1727 10.5327 13.5562C10.8386 13.2615 10.9983 12.8795 11.0117 12.4935C11.4114 12.4813 11.8072 12.3282 12.1124 12.0342C12.4183 11.7396 12.5772 11.3573 12.5893 10.9715C12.9844 10.9562 13.3747 10.8032 13.6764 10.5126C13.9189 10.279 14.0691 9.9901 14.127 9.68803C14.6338 9.77478 15.175 9.62955 15.5666 9.25235C16.2033 8.63899 16.2033 7.64455 15.5666 7.0312L14.8477 6.33873L14.9936 5.78814C15.2916 4.66395 15.1413 3.47349 14.5746 2.45261C13.7385 0.94638 12.1165 0.0158663 10.3619 0.0158662L9.13265 0.0158661C9.07973 0.0132728 9.02651 0.0119629 8.97303 0.0119629H8.24426ZM10.6968 3.72789L13.1022 6.04489L13.1051 6.04771L14.8464 7.72495C15.0854 7.95516 15.0854 8.32839 14.8464 8.55859C14.6074 8.7888 14.2199 8.7888 13.9809 8.55859L12.6596 7.28578C12.564 7.19378 12.4345 7.1421 12.2994 7.1421C12.1644 7.1421 12.0348 7.19378 11.9393 7.28578L11.9261 7.29856C11.7272 7.49013 11.7272 7.80073 11.9261 7.99231L12.9562 8.98458C13.1954 9.21496 13.1954 9.58848 12.9562 9.81886C12.738 10.029 12.3953 10.0477 12.1557 9.87384C11.9522 9.72616 11.6667 9.74611 11.4874 9.92053C11.3081 10.0949 11.2903 10.3701 11.4456 10.5647C11.63 10.7956 11.6119 11.1288 11.3922 11.3405C11.171 11.5536 10.8218 11.5697 10.5819 11.3881C10.3796 11.2351 10.0906 11.2513 9.90823 11.426C9.72582 11.6006 9.70722 11.8789 9.86488 12.0746C10.0534 12.3086 10.0356 12.6474 9.81244 12.8624C9.57018 13.0958 9.17739 13.0958 8.93512 12.8624L8.50211 12.4453L8.66004 12.2932C9.29679 11.6799 9.29678 10.6854 8.66004 10.0721C8.35297 9.7763 7.95389 9.62315 7.55155 9.61265C7.54068 9.22505 7.38169 8.84058 7.07459 8.54476C6.76752 8.24898 6.36844 8.09583 5.9661 8.08533C5.95526 7.69769 5.79627 7.31317 5.48914 7.01732C5.09156 6.63435 4.53973 6.49051 4.02629 6.58578C3.96363 6.29716 3.81599 6.02223 3.58338 5.79817C3.22955 5.45734 2.75356 5.3059 2.29117 5.34386C2.13627 4.20463 2.51314 3.01115 3.42175 2.13592C4.31885 1.27178 5.53801 0.906961 6.70705 1.04144L5.25288 2.10953C4.46627 2.68729 4.31792 3.78401 4.92277 4.55C5.51917 5.30529 6.62451 5.4548 7.40014 4.8851L8.97565 3.72789H10.6968ZM5.84486 2.91548L8.43645 1.01196H8.97303C9.01342 1.01196 9.05352 1.01304 9.09329 1.01516C9.10215 1.01563 9.11102 1.01587 9.11989 1.01587L10.3619 1.01587C11.7664 1.01587 13.0468 1.76077 13.7003 2.93796C14.1425 3.73445 14.2583 4.65932 14.027 5.53196L14.0243 5.54227L11.2646 2.87476C11.1707 2.78073 11.0434 2.72789 10.9106 2.72789H8.81176C8.70528 2.72789 8.60159 2.76188 8.51577 2.82491L6.80816 4.07914C6.46671 4.32994 5.97014 4.26277 5.70759 3.93027C5.45348 3.60847 5.51438 3.15822 5.84486 2.91548ZM6.28663 11.5248L6.29625 11.5156L7.07459 10.7659L7.08404 10.7567C7.3237 10.5357 7.70403 10.5387 7.93982 10.7658C8.17881 10.996 8.17881 11.3693 7.93982 11.5995L7.16149 12.3492C6.9225 12.5794 6.53503 12.5794 6.29604 12.3492C6.06024 12.1221 6.0571 11.7557 6.28663 11.5248ZM6.36378 10.0629L6.35416 10.0721L5.57583 10.8218L5.56638 10.831C5.32673 11.052 4.94639 11.049 4.7106 10.8219C4.47398 10.594 4.47163 10.2259 4.70354 9.99515L4.7108 9.9882L5.48914 9.23847L5.49618 9.23164C5.73568 9.00833 6.11779 9.01062 6.35437 9.23851C6.59018 9.46565 6.59331 9.83204 6.36378 10.0629ZM4.76871 8.54476L3.99038 9.2945L3.98335 9.30131C3.74384 9.52463 3.36173 9.52234 3.12515 9.29445C2.88616 9.06424 2.88616 8.69101 3.12515 8.46081L3.90348 7.71108C4.14246 7.48087 4.52994 7.48087 4.76892 7.71107C5.00553 7.93899 5.00788 8.30711 4.77597 8.53781L4.76871 8.54476ZM2.86316 7.32556L2.08483 8.07529C1.84584 8.30549 1.45837 8.30549 1.21938 8.07529C0.980398 7.84509 0.980399 7.47185 1.21938 7.24165L1.99772 6.49192C2.2367 6.26171 2.62417 6.26171 2.86316 6.49192C3.10215 6.72212 3.10215 7.09535 2.86316 7.32556Z" fill="#242424"/>
</svg>
