<svg width="17" height="17" viewBox="0 0 17 17" fill="none" xmlns="http://www.w3.org/2000/svg">
<path d="M6.89941 3H9.89941C9.89941 2.17157 9.22784 1.5 8.39941 1.5C7.57099 1.5 6.89941 2.17157 6.89941 3ZM5.89941 3C5.89941 1.61929 7.0187 0.5 8.39941 0.5C9.78013 0.5 10.8994 1.61929 10.8994 3H15.8994C16.1756 3 16.3994 3.22386 16.3994 3.5C16.3994 3.77614 16.1756 4 15.8994 4H14.845L13.6515 14.3439C13.4768 15.8576 12.1951 17 10.6713 17H6.12754C4.60373 17 3.32198 15.8576 3.14731 14.3439L1.95379 4H0.899414C0.623272 4 0.399414 3.77614 0.399414 3.5C0.399414 3.22386 0.623272 3 0.899414 3H5.89941ZM7.39941 7C7.39941 6.72386 7.17556 6.5 6.89941 6.5C6.62327 6.5 6.39941 6.72386 6.39941 7V13C6.39941 13.2761 6.62327 13.5 6.89941 13.5C7.17556 13.5 7.39941 13.2761 7.39941 13V7ZM9.89941 6.5C9.62327 6.5 9.39941 6.72386 9.39941 7V13C9.39941 13.2761 9.62327 13.5 9.89941 13.5C10.1756 13.5 10.3994 13.2761 10.3994 13V7C10.3994 6.72386 10.1756 6.5 9.89941 6.5Z" fill="#525252"/>
</svg>
