<svg width="14" height="17" viewBox="0 0 14 17" fill="none" xmlns="http://www.w3.org/2000/svg">
<path d="M7 0.5C4.79086 0.5 3 2.29086 3 4.5C3 6.70914 4.79086 8.5 7 8.5C9.20914 8.5 11 6.70914 11 4.5C11 2.29086 9.20914 0.5 7 0.5ZM2.00873 9.5C0.903151 9.5 0 10.3869 0 11.5C0 13.1912 0.83281 14.4663 2.13499 15.2966C3.41697 16.114 5.14526 16.5 7 16.5C8.85474 16.5 10.583 16.114 11.865 15.2966C13.1672 14.4663 14 13.1912 14 11.5C14 10.3956 13.1045 9.50001 12 9.50001L2.00873 9.5Z" fill="#EEF0FF"/>
</svg>
