<svg width="10" height="14" viewBox="0 0 10 14" fill="none" xmlns="http://www.w3.org/2000/svg">
<path id="Union" d="M8.49902 7.25C9.32745 7.25 9.99902 7.92157 9.99902 8.75V9.25C9.99902 11.2214 8.13951 13.25 4.99902 13.25C1.85853 13.25 -0.000976562 11.2214 -0.000976562 9.25V8.75C-0.000976562 7.92157 0.670596 7.25 1.49902 7.25H8.49902ZM8.49902 8.25H1.49902C1.22288 8.25 0.999023 8.47386 0.999023 8.75V9.25C0.999023 10.6876 2.43118 12.25 4.99902 12.25C7.56687 12.25 8.99902 10.6876 8.99902 9.25V8.75C8.99902 8.47386 8.77517 8.25 8.49902 8.25ZM4.99902 0.75C6.51781 0.75 7.74902 1.98122 7.74902 3.5C7.74902 5.01878 6.51781 6.25 4.99902 6.25C3.48024 6.25 2.24902 5.01878 2.24902 3.5C2.24902 1.98122 3.48024 0.75 4.99902 0.75ZM4.99902 1.75C4.03253 1.75 3.24902 2.5335 3.24902 3.5C3.24902 4.4665 4.03253 5.25 4.99902 5.25C5.96552 5.25 6.74902 4.4665 6.74902 3.5C6.74902 2.5335 5.96552 1.75 4.99902 1.75Z" fill="#2F54EB"/>
</svg>
