<svg width="13" height="14" viewBox="0 0 13 14" fill="none" xmlns="http://www.w3.org/2000/svg">
<path d="M0 8.87891C0 10.6815 1.55468 12.5319 4.22176 12.8356C3.93668 12.4832 3.69426 12.0949 3.50235 11.6785C1.88187 11.212 1 10.007 1 8.87891V8.37891C1 8.10276 1.22386 7.87891 1.5 7.87891H3.20703C3.30564 7.53027 3.43777 7.1957 3.59971 6.87891H1.5C0.671573 6.87891 0 7.55048 0 8.37891V8.87891ZM7.75 3.12891C7.75 3.41416 7.70657 3.68926 7.62596 3.94797C7.14016 4.02555 6.67558 4.16674 6.24104 4.36273C6.55561 4.04633 6.75 3.61032 6.75 3.12891C6.75 2.16241 5.9665 1.37891 5 1.37891C4.0335 1.37891 3.25 2.16241 3.25 3.12891C3.25 4.0954 4.0335 4.87891 5 4.87891C5.13934 4.87891 5.27488 4.86262 5.40482 4.83185C5.00446 5.1049 4.64202 5.42945 4.32704 5.79597C3.13357 5.49578 2.25 4.41553 2.25 3.12891C2.25 1.61012 3.48122 0.378906 5 0.378906C6.51878 0.378906 7.75 1.61012 7.75 3.12891ZM8.5 6.75391C8.15482 6.75391 7.875 7.03373 7.875 7.37891C7.875 7.72408 8.15482 8.00391 8.5 8.00391C8.84518 8.00391 9.125 7.72408 9.125 7.37891C9.125 7.03373 8.84518 6.75391 8.5 6.75391ZM8.5 11.8789C8.77614 11.8789 9 11.655 9 11.3789V9.37891C9 9.10276 8.77614 8.87891 8.5 8.87891C8.22386 8.87891 8 9.10276 8 9.37891L8 11.3789C8 11.655 8.22386 11.8789 8.5 11.8789ZM8.5 4.87891C6.01472 4.87891 4 6.89362 4 9.37891C4 11.8642 6.01472 13.8789 8.5 13.8789C10.9853 13.8789 13 11.8642 13 9.37891C13 6.89362 10.9853 4.87891 8.5 4.87891ZM8.5 5.87891C10.433 5.87891 12 7.44591 12 9.37891C12 11.3119 10.433 12.8789 8.5 12.8789C6.567 12.8789 5 11.3119 5 9.37891C5 7.44591 6.567 5.87891 8.5 5.87891Z" fill="#525252"/>
</svg>
