<svg width="16" height="17" viewBox="0 0 16 17" fill="none" xmlns="http://www.w3.org/2000/svg">
<path d="M3 4C3 1.79086 4.79086 0 7 0C9.20914 0 11 1.79086 11 4C11 6.19804 9.18406 8 7 8C4.79086 8 3 6.20914 3 4ZM8.22616 9L2.00873 9C0.903151 9 0 9.88687 0 11C0 12.6912 0.83281 13.9663 2.13499 14.7966C2.94635 15.3139 3.93649 15.6585 5.02431 15.8417C4.97752 15.5073 4.99828 15.1652 5.08658 14.8375C4.14961 14.6687 3.32687 14.3706 2.67262 13.9534C1.62226 13.2837 1 12.3088 1 11C1 10.4467 1.44786 10 2.00873 10L7.99438 10C8.03326 9.66083 8.1105 9.32514 8.22616 9ZM7 1C5.34315 1 4 2.34315 4 4C4 5.65685 5.34315 7 7 7C8.65685 7 10 5.65685 10 4C10 2.34315 8.65685 1 7 1ZM12.8916 7.02374C13.2582 7.06644 13.3631 7.50482 13.1021 7.76585L12.127 8.74098C11.5382 9.32972 11.5382 10.2843 12.127 10.873C12.7157 11.4618 13.6703 11.4618 14.259 10.873L15.2341 9.89788C15.4952 9.63685 15.9336 9.74177 15.9763 10.1084C16.0964 11.1397 15.7608 12.2139 14.9697 13.005C13.9775 13.9973 12.5399 14.2728 11.3003 13.8317L8.57359 16.5584C7.98484 17.1472 7.0303 17.1472 6.44156 16.5584C5.85281 15.9697 5.85281 15.0152 6.44156 14.4264L9.16831 11.6997C8.72716 10.4601 9.00271 9.02255 9.99496 8.0303C10.7861 7.23917 11.8603 6.90365 12.8916 7.02374Z" fill="#525252"/>
</svg>
