<svg width="16" height="12" viewBox="0 0 16 12" fill="none" xmlns="http://www.w3.org/2000/svg">
<path d="M6 4.5C6 5.32843 5.32843 6 4.5 6C3.67157 6 3 5.32843 3 4.5C3 3.67157 3.67157 3 4.5 3C5.32843 3 6 3.67157 6 4.5ZM2 7.69879C2 7.17479 2.42479 6.75 2.94879 6.75H6.05121C6.57521 6.75 7 7.17479 7 7.69879C7 8.54603 6.42338 9.28454 5.60144 9.49003L5.54243 9.50478C4.85801 9.67589 4.14199 9.67589 3.45757 9.50478L3.39856 9.49003C2.57661 9.28454 2 8.54603 2 7.69879ZM9.5 4C9.22386 4 9 4.22386 9 4.5C9 4.77614 9.22386 5 9.5 5H12.5C12.7761 5 13 4.77614 13 4.5C13 4.22386 12.7761 4 12.5 4H9.5ZM9.5 7C9.22386 7 9 7.22386 9 7.5C9 7.77614 9.22386 8 9.5 8H12.5C12.7761 8 13 7.77614 13 7.5C13 7.22386 12.7761 7 12.5 7H9.5ZM0 1.75C0 0.783502 0.783502 0 1.75 0H14.25C15.2165 0 16 0.783502 16 1.75V10.25C16 11.2165 15.2165 12 14.25 12H1.75C0.783501 12 0 11.2165 0 10.25V1.75ZM1.75 1C1.33579 1 1 1.33579 1 1.75V10.25C1 10.6642 1.33579 11 1.75 11H14.25C14.6642 11 15 10.6642 15 10.25V1.75C15 1.33579 14.6642 1 14.25 1H1.75Z" fill="#525252"/>
</svg>
