<svg width="13" height="14" viewBox="0 0 13 14" fill="none" xmlns="http://www.w3.org/2000/svg">
<path id="Union" d="M0 8.75C0 10.5526 1.55468 12.403 4.22176 12.7067C3.93668 12.3543 3.69426 11.966 3.50235 11.5496C1.88187 11.083 1 9.87813 1 8.75V8.25C1 7.97386 1.22386 7.75 1.5 7.75H3.20703C3.30564 7.40136 3.43777 7.06679 3.59971 6.75H1.5C0.671573 6.75 0 7.42157 0 8.25V8.75ZM7.75 3C7.75 3.28525 7.70657 3.56036 7.62596 3.81907C7.14016 3.89664 6.67558 4.03783 6.24104 4.23382C6.55561 3.91743 6.75 3.48141 6.75 3C6.75 2.0335 5.9665 1.25 5 1.25C4.0335 1.25 3.25 2.0335 3.25 3C3.25 3.9665 4.0335 4.75 5 4.75C5.13934 4.75 5.27488 4.73371 5.40482 4.70294C5.00446 4.976 4.64202 5.30055 4.32704 5.66706C3.13357 5.36687 2.25 4.28662 2.25 3C2.25 1.48122 3.48122 0.25 5 0.25C6.51878 0.25 7.75 1.48122 7.75 3ZM13 9.25C13 11.7353 10.9853 13.75 8.5 13.75C6.01472 13.75 4 11.7353 4 9.25C4 6.76472 6.01472 4.75 8.5 4.75C10.9853 4.75 13 6.76472 13 9.25ZM8.97603 6.61053C8.82619 6.12982 8.17381 6.12982 8.02397 6.61053L7.54652 8.14228H6.00149C5.51662 8.14228 5.31501 8.78907 5.70728 9.08617L6.95725 10.0329L6.4798 11.5646C6.32997 12.0453 6.85775 12.4451 7.25003 12.148L8.5 11.2013L9.74997 12.148C10.1422 12.4451 10.67 12.0453 10.5202 11.5646L10.0428 10.0329L11.2927 9.08617C11.685 8.78907 11.4834 8.14228 10.9985 8.14228H9.45348L8.97603 6.61053Z" fill="#2F54EB"/>
</svg>
