<svg width="12" height="8" viewBox="0 0 12 8" fill="none" xmlns="http://www.w3.org/2000/svg">
<path d="M0.984198 4.62471L0.98322 4.62815C0.912261 4.8948 0.638545 5.05404 0.371774 4.9833C-0.0592659 4.86907 0.016621 4.37186 0.016621 4.37186L0.0342856 4.31047C0.0342856 4.31047 0.0603894 4.22636 0.0814186 4.1653C0.123442 4.04329 0.187707 3.87274 0.279065 3.66977C0.461294 3.26493 0.754187 2.72477 1.19852 2.18295C2.09605 1.08851 3.60485 0 5.99992 0C8.39499 0 9.90379 1.08851 10.8013 2.18295C11.2457 2.72477 11.5385 3.26493 11.7208 3.66977C11.8121 3.87274 11.8764 4.04329 11.9184 4.1653C11.9395 4.22636 11.955 4.27541 11.9656 4.31047C11.9709 4.328 11.9749 4.34204 11.9778 4.35236L11.9814 4.365L11.9825 4.36916L11.9829 4.37069L11.9832 4.37186C12.054 4.63878 11.895 4.91253 11.6281 4.9833C11.3616 5.05397 11.0882 4.89556 11.0169 4.62937L11.0166 4.62815L11.0156 4.62471L11.0083 4.5997C11.0012 4.57616 10.9896 4.53927 10.9729 4.49095C10.9396 4.39422 10.8863 4.25227 10.8089 4.08023C10.6535 3.73508 10.4038 3.27523 10.0281 2.81706C9.28545 1.9115 8.04425 1 5.99992 1C3.95559 1 2.71439 1.9115 1.97176 2.81706C1.59603 3.27523 1.34631 3.73508 1.19094 4.08023C1.11351 4.25227 1.06023 4.39422 1.02691 4.49095C1.01027 4.53927 0.998658 4.57616 0.991545 4.5997L0.984198 4.62471ZM3.5 5.5C3.5 4.11929 4.61929 3 6 3C7.38071 3 8.5 4.11929 8.5 5.5C8.5 6.88071 7.38071 8 6 8C4.61929 8 3.5 6.88071 3.5 5.5Z" fill="#525252"/>
</svg>
