<svg width="14" height="14" viewBox="0 0 14 14" fill="none" xmlns="http://www.w3.org/2000/svg">
<g id="Wallet">
<path id="Shape" d="M9.5 7C9.22386 7 9 7.22386 9 7.5C9 7.77614 9.22386 8 9.5 8H10.5C10.7761 8 11 7.77614 11 7.5C11 7.22386 10.7761 7 10.5 7H9.5ZM2.5 1C1.67157 1 1 1.67157 1 2.5V10.5C1 11.8807 2.11929 13 3.5 13H11C12.1046 13 13 12.1046 13 11V5C13 4.25972 12.5978 3.61337 12 3.26756V3C12 1.89543 11.1046 1 10 1H2.5ZM2.5 2H10C10.5523 2 11 2.44772 11 3H2.5C2.22386 3 2 2.77614 2 2.5C2 2.22386 2.22386 2 2.5 2ZM2.5 4H11C11.5523 4 12 4.44772 12 5V11C12 11.5523 11.5523 12 11 12H3.5C2.67157 12 2 11.3284 2 10.5V3.91465C2.15639 3.96992 2.32468 4 2.5 4Z" fill="#EEF0FF"/>
</g>
</svg>
