<svg width="14" height="15" viewBox="0 0 14 15" fill="none" xmlns="http://www.w3.org/2000/svg">
<g id="Wallet Credit Card" clip-path="url(#clip0_6091_82624)">
<path id="Shape" d="M8.36803 0.721598C7.93691 0.369515 7.30127 0.437223 6.95399 0.87222L4.05775 4.50001H5.33734L7.73549 1.49613L8.50497 2.12454L6.57422 4.50084H7.86269L9.2795 2.75707L10.9979 4.16048L10.6999 4.50001H11C11.3064 4.50001 11.6021 4.54594 11.8805 4.63128C12.1006 4.21961 12.0082 3.69438 11.6305 3.38595L8.36803 0.721598ZM2 5C2 4.72386 2.22386 4.5 2.5 4.5H3.05762L3.85254 3.5H2.5C1.67157 3.5 1 4.17157 1 5V11C1 12.3807 2.11929 13.5 3.5 13.5H11C12.1046 13.5 13 12.6046 13 11.5V7.5C13 6.39543 12.1046 5.5 11 5.5H2.5C2.22386 5.5 2 5.27614 2 5ZM9.5 9.5H10.5C10.7761 9.5 11 9.72386 11 10C11 10.2761 10.7761 10.5 10.5 10.5H9.5C9.22386 10.5 9 10.2761 9 10C9 9.72386 9.22386 9.5 9.5 9.5Z" fill="#525252"/>
</g>
<defs>
<clipPath id="clip0_6091_82624">
<rect width="14" height="14" fill="white" transform="translate(0 0.5)"/>
</clipPath>
</defs>
</svg>
