<svg width="18" height="18" viewBox="0 0 18 18" fill="none" xmlns="http://www.w3.org/2000/svg">
<path d="M14.848 1.14357C14.6518 0.947392 14.3374 0.947988 14.1457 1.1449C13.9539 1.34182 13.9575 1.66048 14.1537 1.85666C15.611 3.31398 16.3008 5.3828 16.0093 7.42334C15.97 7.69805 16.1583 7.95511 16.4298 7.99752C16.7013 8.03992 16.9532 7.8516 16.9924 7.5769C17.3294 5.21853 16.5322 2.8277 14.848 1.14357ZM3.62552 3.03388C3.65212 2.38462 4.07558 1.79007 4.7303 1.57733C5.50215 1.32655 6.32713 1.69395 6.66801 2.40772C6.82888 2.26376 7.02167 2.1502 7.24018 2.0792C8.08058 1.80614 8.98323 2.26606 9.25629 3.10647L9.34392 3.37616C9.49597 3.24939 9.67424 3.1489 9.87402 3.08399C10.7141 2.81104 11.6163 3.27048 11.8898 4.11024L11.8901 4.11126L12.956 7.34072L13.5398 9.04505C13.9688 10.2978 14.0993 11.6334 13.9207 12.9455L13.6502 14.9331C13.5307 15.8116 12.9548 16.561 12.1368 16.9028L9.97912 17.8042C9.00734 18.2102 7.911 17.9519 7.17527 17.2467C4.06442 14.2651 1.2963 13.2773 0.534803 13.0477C0.176505 12.9397 -0.129227 12.5284 0.0612973 12.0756C0.211048 11.7197 0.57065 11.0962 1.34243 10.7543C1.93468 10.492 2.70313 10.4245 3.69146 10.6871L1.76599 5.10168C1.49431 4.26554 1.94868 3.3481 2.79333 3.07366C3.07356 2.9826 3.35905 2.97426 3.62552 3.03388ZM5.77699 6.67904L6.33233 8.35762C6.41907 8.61979 6.27685 8.90263 6.01468 8.98937C5.75252 9.0761 5.46968 8.93388 5.38294 8.67172L4.81382 6.95148L3.86204 4.43304L3.85839 4.42182C3.75325 4.09824 3.40915 3.92503 3.10235 4.02471C2.79261 4.12535 2.61468 4.47061 2.71596 4.78903L4.9731 11.3366C5.03757 11.5236 4.98572 11.731 4.84083 11.8657C4.69594 12.0004 4.48527 12.037 4.30344 11.9591C2.97057 11.3879 2.18959 11.4728 1.74744 11.6686C1.45285 11.7991 1.25769 12.0012 1.13099 12.1894C2.26466 12.5767 4.93077 13.7103 7.86723 16.5248C8.34073 16.9786 9.0199 17.1212 9.59363 16.8815L11.7513 15.9801C12.2421 15.775 12.5876 15.3254 12.6594 14.7983L12.9299 12.8107C13.0874 11.653 12.9723 10.4744 12.5937 9.36908L12.0091 7.66213L12.0073 7.65683L10.9398 4.42247L10.9391 4.42027C10.8367 4.10512 10.4982 3.93265 10.183 4.03505C9.89436 4.12885 9.7254 4.42073 9.77775 4.71133L10.6332 7.34416C10.7185 7.60679 10.5748 7.88886 10.3122 7.9742C10.0503 8.05928 9.76909 7.91662 9.68288 7.65542L9.67758 7.65715L8.84675 5.10011C8.83277 5.05706 8.8207 5.01384 8.81051 4.97056L8.30524 3.41548C8.20284 3.10033 7.86435 2.92786 7.54919 3.03026C7.23404 3.13266 7.06157 3.47115 7.16397 3.7863L7.76671 5.64134C7.77881 5.67859 7.78631 5.71624 7.78951 5.75366L8.3168 7.34581C8.40361 7.60795 8.26148 7.89084 7.99934 7.97765C7.7372 8.06447 7.45431 7.92234 7.3675 7.6602L5.7945 2.91049C5.69071 2.5971 5.35329 2.42637 5.03932 2.52839C4.7229 2.6312 4.5505 2.9718 4.655 3.28767L5.75664 6.61751L5.77953 6.67808L5.77699 6.67904ZM13.2443 3.07097C13.4813 2.92927 13.7883 3.00653 13.93 3.24354L14.2259 3.73838C14.7244 4.57231 14.9919 5.52397 15.0008 6.49553C15.0034 6.77166 14.7816 6.99756 14.5055 7.0001C14.2293 7.00263 14.0034 6.78083 14.0009 6.5047C13.9936 5.71073 13.775 4.93302 13.3676 4.25153L13.0717 3.75669C12.93 3.51968 13.0073 3.21267 13.2443 3.07097Z" fill="#242424"/>
</svg>
