<svg width="14" height="14" viewBox="0 0 14 14" fill="none" xmlns="http://www.w3.org/2000/svg">
<g id="Edit">
<path id="Shape" d="M12.4403 1.56066C11.6927 0.813137 10.4808 0.81311 9.73321 1.5606L2.33829 8.95484C2.15725 9.13586 2.02085 9.35655 1.93989 9.59943L1.02567 12.3421C0.965783 12.5218 1.01254 12.7198 1.14646 12.8538C1.28038 12.9877 1.47846 13.0344 1.65813 12.9746L4.40087 12.0603C4.64368 11.9794 4.86432 11.843 5.04531 11.662L12.4402 4.26783C13.1878 3.52029 13.1878 2.30823 12.4403 1.56066ZM10.4403 2.26774C10.7973 1.91074 11.3761 1.91076 11.7331 2.26777C12.0902 2.6248 12.0902 3.20367 11.7331 3.56069L10.9994 4.29437L9.70648 3.00148L10.4403 2.26774ZM8.99934 3.70855L10.2922 5.00145L4.33823 10.9549C4.26701 11.0261 4.18019 11.0798 4.08464 11.1116L2.29058 11.7096L2.88858 9.91566C2.92044 9.82007 2.97412 9.73322 3.04536 9.66198L8.99934 3.70855Z" fill="#EEF0FF"/>
</g>
</svg>
