<svg width="14" height="14" viewBox="0 0 14 14" fill="none" xmlns="http://www.w3.org/2000/svg">
<g id="wrapper">
<path id="Union" d="M2.5 1C2.22386 1 2 1.22386 2 1.5C2 1.77614 2.22386 2 2.5 2H11.5C11.7761 2 12 1.77614 12 1.5C12 1.22386 11.7761 1 11.5 1H2.5ZM7.35355 3.14645C7.15829 2.95118 6.84171 2.95118 6.64645 3.14645L3.14645 6.64645C2.95118 6.84171 2.95118 7.15829 3.14645 7.35355C3.34171 7.54882 3.65829 7.54882 3.85355 7.35355L6.5 4.70711V12.5C6.5 12.7761 6.72386 13 7 13C7.27614 13 7.5 12.7761 7.5 12.5V4.70711L10.1464 7.35355C10.3417 7.54882 10.6583 7.54882 10.8536 7.35355C11.0488 7.15829 11.0488 6.84171 10.8536 6.64645L7.35355 3.14645Z" fill="#525252"/>
</g>
</svg>
